<?xml version="1.0" standalone="no"?>
<!DOCTYPE svg PUBLIC "-//W3C//DTD SVG 1.1//EN" "http://www.w3.org/Graphics/SVG/1.1/DTD/svg11.dtd" >
<svg>
<metadata>
Created by FontForge 20110222 at Wed Jul 16 09:27:40 2014
 By Orthosie Webhosting
Copyright (c) 2007 by Prinya R. nont. All rights reserved.
</metadata>
<defs>
<font id="DBOzoneX-Bold" horiz-adv-x="0" >
  <font-face 
    font-family="DB Ozone X"
    font-weight="700"
    font-stretch="normal"
    units-per-em="1000"
    panose-1="2 0 5 6 9 0 0 2 0 4"
    ascent="800"
    descent="-200"
    x-height="380"
    cap-height="502"
    bbox="-514 -366 902 828"
    underline-thickness="20"
    underline-position="-113"
    unicode-range="U+0020-F882"
  />
<missing-glyph horiz-adv-x="347" 
d="M353 335v-12h5q6 0 6 7q0 1 -1 3t-5 2h-5zM356 322h-3v-11h-4v28h9q10 0 10 -9q0 -5 -2.5 -6.5t-5.5 -1.5l8 -11h-4zM358 306q11 0 14.5 6t3.5 11q0 9 -4.5 14.5t-13.5 5.5t-14 -5.5t-5 -14.5q0 -7 5 -12t14 -5zM358 346q11 0 16 -7t5 -16q0 -7 -5 -13t-16 -6q-9 0 -15 6
t-6 13q0 9 6 16t15 7zM168 265q13 -1 31.5 -3.5t36.5 -6t32.5 -8t23.5 -10.5q-18 33 -53 51t-72 18q-28 0 -54 -11t-43 -33q16 2 31 2.5t30 0.5h18.5h18.5zM314 330v-118q-40 12 -92 21t-109 9q-40 0 -79 -5q6 19 16.5 36t27.5 30t39 20t49 7q25 0 46.5 -5.5t37 -13.5
t26 -18.5t16.5 -18.5l-0.5 6t-0.5 15.5v19.5v15h23zM128 107q0 6 -4.5 9.5t-9.5 3.5q-6 0 -10.5 -3.5t-4.5 -9.5q0 -8 4.5 -10.5t10.5 -2.5q5 0 9.5 2.5t4.5 10.5zM27 116q0 19 7 34.5t20 25.5t28.5 15t33.5 5q16 0 31.5 -4.5t28 -14t19 -23.5t6.5 -34v-97h90v168h23v-190
h-159v22h25v99q0 25 -18 37.5t-46 12.5q-25 0 -44.5 -14t-19.5 -38v-90l47 49q-3 1 -10 8t-7 20q0 14 9 23t25 9q14 0 22.5 -9.5t8.5 -22.5q0 -12 -4.5 -18.5t-7.5 -9.5l-14.5 -14.5t-27.5 -25.5q-18 -17 -40 -38h-26v115z" />
    <glyph glyph-name="plusminus" unicode="&#x2b;&#x2d;" horiz-adv-x="413" 
d="M381 86v-86h-324v86h324zM265 230v-120h-91v120h-121v91h121v121h91v-121h120v-91h-120z" />
    <glyph glyph-name="ellipsis" unicode="&#x2e;&#x2e;&#x2e;" horiz-adv-x="596" 
d="M45 54q0 24 17 41.5t42 17.5t42.5 -17.5t17.5 -41.5q0 -25 -17.5 -42.5t-42.5 -17.5t-42 17.5t-17 42.5zM433 54q0 24 17.5 41.5t42.5 17.5q24 0 41.5 -17.5t17.5 -41.5q0 -25 -17.5 -42.5t-41.5 -17.5q-25 0 -42.5 17.5t-17.5 42.5zM240 54q0 24 17 41.5t42 17.5
t42 -17.5t17 -41.5q0 -25 -17 -42.5t-42 -17.5t-42 17.5t-17 42.5z" />
    <glyph glyph-name="lessequal" unicode="&#x3c;&#x3d;" horiz-adv-x="442" 
d="M404 130l-366 145v72l366 146v-98l-227 -84l227 -83v-98zM38 0v91h366v-91h-366z" />
    <glyph glyph-name="greaterequal" unicode="&#x3e;&#x3d;" horiz-adv-x="442" 
d="M38 228l227 83l-227 84v98l366 -146v-72l-366 -145v98zM38 0v91h366v-91h-366z" />
    <glyph glyph-name="fongmanfunnuthai" unicode="&#xe4f;&#x22;" horiz-adv-x="532" 
d="M167 472l-6 145h81l-6 -145h-69zM291 472l-6 145h81l-6 -145h-69zM219 211q0 -20 13.5 -33.5t33.5 -13.5q19 0 32.5 13.5t13.5 33.5q0 19 -13.5 32.5t-32.5 13.5q-20 0 -33.5 -13.5t-13.5 -32.5zM157 211q0 22 8.5 41.5t23.5 34.5t35 23.5t42 8.5t41.5 -8.5t34.5 -23.5
t23.5 -34.5t8.5 -41.5t-8.5 -42t-23.5 -35t-34.5 -23.5t-41.5 -8.5t-42 8.5t-35 23.5t-23.5 35t-8.5 42zM109 211q0 -32 12.5 -60.5t34 -50t50 -34t60.5 -12.5q33 0 61.5 12.5t49.5 34t33.5 50t12.5 60.5t-12.5 60.5t-33.5 50t-49.5 34t-61.5 12.5q-32 0 -60.5 -12.5
t-50 -34t-34 -50t-12.5 -60.5zM39 211q0 48 17.5 89t48.5 72t72 48.5t89 17.5t89 -17.5t72 -48.5t48.5 -72t17.5 -89t-17.5 -89t-48.5 -72t-72 -48.5t-89 -17.5t-89 17.5t-72 48.5t-48.5 72t-17.5 89z" />
    <glyph glyph-name="dochadaphinthuthai" unicode="&#xe0e;&#xe3a;" horiz-adv-x="470" 
d="M173 107q0 -36 -14.5 -57.5t-35.5 -33t-44 -14.5t-41 -3l-19 88q19 -1 29.5 2t15.5 7.5t6.5 9.5t1.5 10v118l-38 54q73 121 200 121q94 0 139.5 -42t46.5 -120v-306q0 -19 -6 -33.5t-14 -24t-16.5 -15t-13.5 -7.5q-32 -14 -67 0l-76 32q-7 3 -13 0l-99 -48l-58 69l135 65
q14 7 27 7.5t30 -7.5l62 -26q8 -2 8 6v281q0 43 -22 61.5t-64 18.5q-22 0 -42.5 -6t-39.5 -23l22 -31v-153zM309 -246q0 24 17 41t41 17t41 -17t17 -41t-17 -41t-41 -17t-41 17t-17 41z" />
    <glyph glyph-name="topatakphintuthai" unicode="&#xe0f;&#xe3a;" horiz-adv-x="470" 
d="M319 241q0 43 -22 61t-64 18q-22 0 -42.5 -5.5t-39.5 -22.5l22 -31v-154q0 -36 -14.5 -57.5t-35.5 -32.5t-44.5 -14t-41.5 -3l-18 87q18 -1 28.5 1.5t16 6.5t7 9.5t1.5 11.5v118l-38 54q73 121 200 121q94 0 139.5 -42t46.5 -120v-307q0 -16 -5.5 -31.5t-16 -28
t-26 -20.5t-35.5 -8q-19 0 -37 10l-54 29q-5 3 -9 0l-47 -28q-19 -11 -35.5 -9t-28.5 10l-114 76l88 50l57 -39q4 -3 9 0l45 27q16 8 31.5 7.5t30.5 -7.5l40 -22q6 -2 6 5v280zM309 -246q0 24 17 41t41 17t41 -17t17 -41t-17 -41t-41 -17t-41 17t-17 41z" />
    <glyph glyph-name="dochadasarauthai" unicode="&#xe0e;&#xe38;" horiz-adv-x="470" 
d="M173 107q0 -36 -14.5 -57.5t-35.5 -33t-44 -14.5t-41 -3l-19 88q19 -1 29.5 2t15.5 7.5t6.5 9.5t1.5 10v118l-38 54q73 121 200 121q94 0 139.5 -42t46.5 -120v-306q0 -19 -6 -33.5t-14 -24t-16.5 -15t-13.5 -7.5q-32 -14 -67 0l-76 32q-7 3 -13 0l-99 -48l-58 69l135 65
q14 7 27 7.5t30 -7.5l62 -26q8 -2 8 6v281q0 43 -22 61.5t-64 18.5q-22 0 -42.5 -6t-39.5 -23l22 -31v-153zM327 -287q0 11 -7 11h-35v81h42q26 0 43.5 -3.5t28.5 -14t16 -29.5t5 -50v-71h-93v76z" />
    <glyph glyph-name="topataksarauthai" unicode="&#xe0f;&#xe38;" horiz-adv-x="470" 
d="M319 241q0 43 -22 61t-64 18q-22 0 -42.5 -5.5t-39.5 -22.5l22 -31v-154q0 -36 -14.5 -57.5t-35.5 -32.5t-44.5 -14t-41.5 -3l-18 87q18 -1 28.5 1.5t16 6.5t7 9.5t1.5 11.5v118l-38 54q73 121 200 121q94 0 139.5 -42t46.5 -120v-307q0 -16 -5.5 -31.5t-16 -28
t-26 -20.5t-35.5 -8q-19 0 -37 10l-54 29q-5 3 -9 0l-47 -28q-19 -11 -35.5 -9t-28.5 10l-114 76l88 50l57 -39q4 -3 9 0l45 27q16 8 31.5 7.5t30.5 -7.5l40 -22q6 -2 6 5v280zM327 -287q0 11 -7 11h-35v81h42q26 0 43.5 -3.5t28.5 -14t16 -29.5t5 -50v-71h-93v76z" />
    <glyph glyph-name="dochadasarauuthai" unicode="&#xe0e;&#xe39;" horiz-adv-x="470" 
d="M173 107q0 -36 -14.5 -57.5t-35.5 -33t-44 -14.5t-41 -3l-19 88q19 -1 29.5 2t15.5 7.5t6.5 9.5t1.5 10v118l-38 54q73 121 200 121q94 0 139.5 -42t46.5 -120v-306q0 -19 -6 -33.5t-14 -24t-16.5 -15t-13.5 -7.5q-32 -14 -67 0l-76 32q-7 3 -13 0l-99 -48l-58 69l135 65
q14 7 27 7.5t30 -7.5l62 -26q8 -2 8 6v281q0 43 -22 61.5t-64 18.5q-22 0 -42.5 -6t-39.5 -23l22 -31v-153zM217 -274q0 2 -3 2h-29v76h47q42 0 56 -16.5t14 -56.5v-5q0 -5 4 -9t12 -4t11.5 4t3.5 9v78h88v-78q0 -42 -29.5 -67t-72.5 -25q-45 0 -73 25t-29 66v1z" />
    <glyph glyph-name="topataksarauuthai" unicode="&#xe0f;&#xe39;" horiz-adv-x="470" 
d="M319 241q0 43 -22 61t-64 18q-22 0 -42.5 -5.5t-39.5 -22.5l22 -31v-154q0 -36 -14.5 -57.5t-35.5 -32.5t-44.5 -14t-41.5 -3l-18 87q18 -1 28.5 1.5t16 6.5t7 9.5t1.5 11.5v118l-38 54q73 121 200 121q94 0 139.5 -42t46.5 -120v-307q0 -16 -5.5 -31.5t-16 -28
t-26 -20.5t-35.5 -8q-19 0 -37 10l-54 29q-5 3 -9 0l-47 -28q-19 -11 -35.5 -9t-28.5 10l-114 76l88 50l57 -39q4 -3 9 0l45 27q16 8 31.5 7.5t30.5 -7.5l40 -22q6 -2 6 5v280zM217 -274q0 2 -3 2h-29v76h47q42 0 56 -16.5t14 -56.5v-5q0 -5 4 -9t12 -4t11.5 4t3.5 9v78h88
v-78q0 -42 -29.5 -67t-72.5 -25q-45 0 -73 25t-29 66v1z" />
    <glyph glyph-name=".notdef" horiz-adv-x="347" 
d="M353 335v-12h5q6 0 6 7q0 1 -1 3t-5 2h-5zM356 322h-3v-11h-4v28h9q10 0 10 -9q0 -5 -2.5 -6.5t-5.5 -1.5l8 -11h-4zM358 306q11 0 14.5 6t3.5 11q0 9 -4.5 14.5t-13.5 5.5t-14 -5.5t-5 -14.5q0 -7 5 -12t14 -5zM358 346q11 0 16 -7t5 -16q0 -7 -5 -13t-16 -6q-9 0 -15 6
t-6 13q0 9 6 16t15 7zM168 265q13 -1 31.5 -3.5t36.5 -6t32.5 -8t23.5 -10.5q-18 33 -53 51t-72 18q-28 0 -54 -11t-43 -33q16 2 31 2.5t30 0.5h18.5h18.5zM314 330v-118q-40 12 -92 21t-109 9q-40 0 -79 -5q6 19 16.5 36t27.5 30t39 20t49 7q25 0 46.5 -5.5t37 -13.5
t26 -18.5t16.5 -18.5l-0.5 6t-0.5 15.5v19.5v15h23zM128 107q0 6 -4.5 9.5t-9.5 3.5q-6 0 -10.5 -3.5t-4.5 -9.5q0 -8 4.5 -10.5t10.5 -2.5q5 0 9.5 2.5t4.5 10.5zM27 116q0 19 7 34.5t20 25.5t28.5 15t33.5 5q16 0 31.5 -4.5t28 -14t19 -23.5t6.5 -34v-97h90v168h23v-190
h-159v22h25v99q0 25 -18 37.5t-46 12.5q-25 0 -44.5 -14t-19.5 -38v-90l47 49q-3 1 -10 8t-7 20q0 14 9 23t25 9q14 0 22.5 -9.5t8.5 -22.5q0 -12 -4.5 -18.5t-7.5 -9.5l-14.5 -14.5t-27.5 -25.5q-18 -17 -40 -38h-26v115z" />
    <glyph glyph-name=".null" 
 />
    <glyph glyph-name="nonmarkingreturn" horiz-adv-x="237" 
 />
    <glyph glyph-name="space" unicode=" " horiz-adv-x="209" 
 />
    <glyph glyph-name="exclam" unicode="!" horiz-adv-x="240" 
d="M174 166h-84l-14 338h111zM77 50q0 23 16 38.5t39 15.5t38.5 -15.5t15.5 -38.5t-15.5 -39t-38.5 -16t-39 16t-16 39z" />
    <glyph glyph-name="quotedbl" unicode="&#x22;" horiz-adv-x="351" 
d="M207 357v157h92v-157h-92zM52 357v157h92v-157h-92z" />
    <glyph glyph-name="numbersign" unicode="#" horiz-adv-x="509" 
d="M399 291l-10 -66h48v-93h-63l-21 -132h-104l22 132h-74l-21 -132h-105l22 132h-48v93h64l9 66h-48v93h63l18 122h106l-20 -122h72l21 122h103l-19 -122h48v-93h-63zM223 291l-12 -66h73l12 66h-73z" />
    <glyph glyph-name="dollar" unicode="$" horiz-adv-x="430" 
d="M402 149q0 -65 -42 -103.5t-110 -46.5v-79h-78v75q-51 2 -91.5 18t-76.5 52l70 68q22 -23 49 -33t58 -11v118l-18 4q-63 8 -100 42.5t-37 98.5q0 60 38.5 101.5t107.5 50.5v63h78v-62q43 -3 77 -17.5t64 -42.5l-67 -66q-18 17 -40.5 25t-42.5 10v-113q5 -1 11.5 -2.5
t11.5 -2.5q69 -10 103.5 -44t34.5 -103zM181 413q-27 -5 -40 -21t-13 -36q0 -8 2.5 -16.5t10.5 -16.5q15 -15 40 -18v108zM298 148q0 11 -3 21t-11 16q-9 8 -20 12t-23 6v-113q57 11 57 58z" />
    <glyph glyph-name="percent" unicode="%" horiz-adv-x="638" 
d="M593 95q0 -49 -31.5 -74.5t-74.5 -25.5t-74 25.5t-31 74.5v69q0 48 31 73t74 25t74.5 -25t31.5 -73v-69zM239 0h-81l241 501h80zM255 338q0 -49 -31.5 -73.5t-74.5 -24.5t-74 24.5t-31 73.5v69q0 50 31 74.5t74 24.5t74.5 -24.5t31.5 -74.5v-69zM519 160q0 36 -32 36
t-32 -36v-62q0 -36 32 -36t32 36v62zM181 404q0 36 -32 36t-32 -36v-63q0 -36 32 -36t32 36v63z" />
    <glyph glyph-name="ampersand" unicode="&#x26;" horiz-adv-x="546" 
d="M383 0l-36 42q-9 -7 -20.5 -15t-27 -15t-35.5 -12t-46 -5q-85 0 -127 41.5t-42 112.5q0 23 8 43t20.5 36.5t28.5 30t32 24.5q-15 17 -31.5 42.5t-16.5 60.5q0 53 36 86.5t102 33.5q60 0 95 -34t35 -87q0 -29 -14 -49.5t-39 -39.5q-6 -5 -11 -9t-10.5 -7.5t-10.5 -6.5
q19 -23 39.5 -46t40.5 -46q7 15 13.5 38t7.5 46h94q-5 -99 -51 -156l93 -109h-127zM264 384q0 17 -9.5 27t-26.5 10q-20 0 -29.5 -10t-9.5 -27q0 -12 9.5 -24t21.5 -26q8 4 12 7q3 2 6 5q11 8 18.5 17.5t7.5 20.5zM191 222q-20 -14 -32.5 -30t-12.5 -42q0 -29 21 -46.5
t50 -17.5q21 0 37 5.5t33 18.5z" />
    <glyph glyph-name="quotesingle" unicode="'" horiz-adv-x="199" 
d="M52 361v157h93v-157h-93z" />
    <glyph glyph-name="parenleft" unicode="(" horiz-adv-x="223" 
d="M133 -71q-20 19 -36.5 37t-30.5 41q-13 23 -16.5 47.5t-3.5 49.5v339q0 26 3.5 50t16.5 47q14 23 30.5 41t36.5 38l65 -66q-14 -14 -23 -24t-19 -27q-11 -20 -11 -63v-330q0 -42 11 -64q10 -17 19 -27t23 -24z" />
    <glyph glyph-name="parenright" unicode=")" horiz-adv-x="223" 
d="M22 -6q13 14 22.5 24t19.5 27q11 22 11 64v330q0 43 -11 63q-10 17 -19.5 27t-22.5 24l65 66q20 -20 36.5 -38t30.5 -41q13 -23 16.5 -47t3.5 -50v-339q0 -25 -3.5 -49.5t-16.5 -47.5q-14 -23 -30.5 -41t-36.5 -37z" />
    <glyph glyph-name="asterisk" unicode="*" horiz-adv-x="368" 
d="M295 269l-80 50l4 -94h-70l4 94l-81 -50l-33 60l83 43l-83 44l33 61l81 -50l-4 94h70l-4 -94l80 50l35 -61l-84 -44l84 -43z" />
    <glyph glyph-name="plus" unicode="+" horiz-adv-x="438" 
d="M265 162v-121h-91v121h-121v91h121v120h91v-120h120v-91h-120z" />
    <glyph glyph-name="comma" unicode="," horiz-adv-x="203" 
d="M49 -124v231h108v-148z" />
    <glyph glyph-name="hyphen" unicode="-" horiz-adv-x="336" 
d="M52 161v91h232v-91h-232z" />
    <glyph glyph-name="period" unicode="." horiz-adv-x="208" 
d="M45 55q0 25 17 42.5t42 17.5t42.5 -17.5t17.5 -42.5q0 -24 -17.5 -41.5t-42.5 -17.5t-42 17.5t-17 41.5z" />
    <glyph glyph-name="slash" unicode="/" horiz-adv-x="292" 
d="M86 -55h-93l215 662h92z" />
    <glyph glyph-name="zero" unicode="0" horiz-adv-x="381" 
d="M347 148q0 -37 -12.5 -65.5t-34 -48t-50 -29.5t-59.5 -10q-32 0 -60 10t-50 29.5t-34.5 48t-12.5 65.5v208q0 37 12.5 65t34.5 47t50 28.5t60 9.5q31 0 59.5 -9.5t50 -28.5t34 -47t12.5 -65v-208zM248 354q0 30 -15.5 46.5t-41.5 16.5q-25 0 -41 -16.5t-16 -46.5v-206
q0 -30 16 -46.5t41 -16.5q26 0 41.5 16.5t15.5 46.5v206z" />
    <glyph glyph-name="one" unicode="1" horiz-adv-x="381" 
d="M174 0v392l-101 -87v108l102 89h98v-502h-99z" />
    <glyph glyph-name="two" unicode="2" horiz-adv-x="381" 
d="M34 0v87l188 217q12 14 18.5 27t6.5 30q0 26 -15 41t-41 15q-23 0 -40.5 -13.5t-17.5 -48.5h-99q0 36 12 64t33.5 47.5t50 29.5t61.5 10q34 0 62.5 -10t49.5 -28.5t32.5 -46t11.5 -61.5q0 -38 -14.5 -62t-41.5 -55l-134 -154h190v-89h-313z" />
    <glyph glyph-name="three" unicode="3" horiz-adv-x="381" 
d="M351 148q0 -39 -13 -68t-35.5 -47.5t-51.5 -28t-62 -9.5q-32 0 -61 8.5t-51.5 27.5t-36.5 48t-14 70h98q2 -33 20.5 -48.5t44.5 -15.5q28 0 45.5 16.5t17.5 47.5q0 30 -17 48t-49 18h-17v86h17q32 0 45.5 16t13.5 42q0 29 -17 43.5t-40 14.5q-24 0 -40 -15.5t-18 -42.5
h-99q1 35 13.5 62.5t33.5 46t49.5 28.5t60.5 10q34 0 63 -10.5t50 -29.5t32.5 -45.5t11.5 -58.5q0 -39 -15 -63.5t-38 -38.5q25 -15 42 -41.5t17 -70.5z" />
    <glyph glyph-name="four" unicode="4" horiz-adv-x="381" 
d="M316 70v-70h-95v70h-205v92l173 340h109l-172 -338h95v92h95v-92h46v-94h-46z" />
    <glyph glyph-name="five" unicode="5" horiz-adv-x="381" 
d="M348 171q0 -37 -9 -69t-28.5 -56t-49 -37.5t-71.5 -13.5q-72 0 -110.5 39.5t-45.5 111.5h97q4 -29 18 -45t41 -16q26 0 41 16q11 11 15 28.5t4 41.5q0 40 -13.5 63t-44.5 23q-26 0 -39 -13.5t-18 -27.5h-91v286h293v-89h-202v-93q11 8 29.5 14t41.5 6q37 0 64 -13
t44 -35.5t25.5 -53.5t8.5 -67z" />
    <glyph glyph-name="six" unicode="6" horiz-adv-x="381" 
d="M356 160q0 -39 -12.5 -70t-35 -52t-53 -32t-65.5 -11t-65 11t-52.5 31.5t-35.5 51t-13 69.5q0 38 13.5 71.5t30.5 69.5l100 203h110l-96 -189q11 2 18.5 2.5t15.5 0.5q27 0 52 -10.5t44.5 -30.5t31.5 -49t12 -66zM256 159q0 34 -18.5 53t-47.5 19t-47.5 -18.5
t-18.5 -53.5t18.5 -54.5t47.5 -19.5t47.5 19.5t18.5 54.5z" />
    <glyph glyph-name="seven" unicode="7" horiz-adv-x="381" 
d="M189 0h-108l162 413h-122v-73h-95v162h325v-87z" />
    <glyph glyph-name="eight" unicode="8" horiz-adv-x="381" 
d="M354 148q0 -38 -13 -66.5t-35 -48t-51.5 -29t-63.5 -9.5q-35 0 -65 9.5t-52 29t-35 48t-13 66.5q0 45 19.5 71t40.5 40q-19 14 -36 39t-17 65q0 34 12.5 60.5t34 45t50.5 28t61 9.5q31 0 59.5 -9.5t50 -28t34 -45t12.5 -60.5q0 -40 -17 -65t-36 -39q21 -14 40.5 -40
t19.5 -71zM248 360q0 25 -16 41t-41 16q-26 0 -43 -16t-17 -41q0 -27 17 -43t43 -16q25 0 41 16t16 43zM254 149q0 27 -18 46.5t-45 19.5q-29 0 -47.5 -19.5t-18.5 -46.5t18.5 -45.5t47.5 -18.5q27 0 45 18.5t18 45.5z" />
    <glyph glyph-name="nine" unicode="9" horiz-adv-x="381" 
d="M24 342q0 39 13 69.5t35.5 52t53 32.5t65.5 11t65 -11t52.5 -31.5t35 -51t12.5 -69.5q0 -38 -13.5 -71.5t-30.5 -69.5l-100 -203h-110l96 189q-11 -2 -18.5 -2.5t-15.5 -0.5q-27 0 -52 10.5t-44.5 30.5t-31.5 49t-12 66zM124 343q0 -34 18.5 -53t48.5 -19q29 0 47 18.5
t18 53.5t-18 54.5t-47 19.5t-48 -19.5t-19 -54.5z" />
    <glyph glyph-name="colon" unicode=":" horiz-adv-x="230" 
d="M66 55q0 24 17 41.5t42 17.5t42 -17.5t17 -41.5q0 -25 -17 -42.5t-42 -17.5t-42 17.5t-17 42.5zM66 278q0 25 17 42t42 17t42 -17t17 -42t-17 -42t-42 -17t-42 17t-17 42z" />
    <glyph glyph-name="semicolon" unicode=";" horiz-adv-x="230" 
d="M72 -124v231h107v-148zM67 278q0 25 17 42t42 17t42 -17t17 -42t-17 -42t-42 -17t-42 17t-17 42z" />
    <glyph glyph-name="less" unicode="&#x3c;" horiz-adv-x="451" 
d="M414 50l-376 145v72l376 146v-98l-233 -84l233 -83v-98z" />
    <glyph glyph-name="equal" unicode="=" horiz-adv-x="432" 
d="M50 243v92h333v-92h-333zM50 80v91h333v-91h-333z" />
    <glyph glyph-name="greater" unicode="&#x3e;" horiz-adv-x="451" 
d="M38 148l232 83l-232 84v98l376 -146v-72l-376 -145v98z" />
    <glyph glyph-name="question" unicode="?" horiz-adv-x="359" 
d="M332 366q0 -26 -10 -47.5t-26 -42.5l-56 -74q-7 -9 -7 -28v-18h-99v24q0 23 6.5 39.5t21.5 36.5l51 66q20 23 20 45q0 23 -14 38t-39 15q-26 0 -39 -17t-13 -41h-99q0 34 12 61.5t32.5 46.5t48 29t58.5 10q30 0 57.5 -9.5t48.5 -27.5t33.5 -45t12.5 -61zM129 50
q0 23 15.5 38.5t38.5 15.5t39 -15.5t16 -38.5t-16 -39t-39 -16t-38.5 16t-15.5 39z" />
    <glyph glyph-name="at" unicode="@" horiz-adv-x="657" 
d="M443 100q-20 0 -37.5 9.5t-28.5 20.5q-23 -16 -44.5 -21.5t-42.5 -5.5q-30 0 -51.5 13t-34 34t-16.5 47.5t1 54.5q4 29 15.5 54.5t30 44.5t43.5 30t57 11q38 0 59 -18q0 7 2 11h75l-32 -179q-2 -10 -2.5 -24t10.5 -15q18 -2 33 5.5t25.5 20.5t17 30.5t8.5 36.5
q4 42 -8.5 78t-38.5 63t-63.5 42.5t-83.5 15.5q-43 0 -80.5 -16t-65.5 -44t-45 -66t-19 -82q-2 -45 14.5 -83.5t44.5 -66t64 -43.5t74 -16q33 0 73 8.5t76 31.5l49 -56q-48 -35 -100.5 -47t-97.5 -12q-61 0 -113 23t-89.5 62t-58 90.5t-18.5 108.5q1 59 24.5 110.5t63 90
t92 60.5t112.5 22q62 0 113.5 -20.5t88 -57.5t55 -87t14.5 -109q-2 -31 -13.5 -59.5t-32.5 -51t-51 -36t-68 -13.5zM371 252q2 11 3 24.5t-2 25t-11.5 19.5t-25.5 8q-35 0 -52 -25.5t-22 -58.5q-3 -10 -3 -23.5t3.5 -25.5t12.5 -20.5t24 -8.5q37 0 52.5 25t20.5 60z" />
    <glyph glyph-name="A" unicode="A" horiz-adv-x="455" 
d="M342 0l-28 87h-173q-8 -22 -15.5 -44t-15.5 -43h-109l184 502h82l186 -502h-111zM229 340l-58 -164h113z" />
    <glyph glyph-name="B" unicode="B" horiz-adv-x="465" 
d="M422 147q0 -36 -12 -63.5t-33 -46t-50 -28t-63 -9.5h-203v502h196q74 0 116 -38t42 -104q0 -39 -18.5 -65t-37.5 -37q22 -12 42.5 -38t20.5 -73zM310 356q0 24 -16 38.5t-45 14.5h-84v-106h84q29 0 45 14t16 39zM317 150q0 25 -15 41.5t-47 16.5h-90v-114h90
q32 0 47 16.5t15 39.5z" />
    <glyph glyph-name="C" unicode="C" horiz-adv-x="445" 
d="M414 155q-12 -79 -63 -119.5t-122 -40.5q-42 0 -76 15t-60 41q-20 19 -30 40.5t-14.5 46t-5 52.5t-0.5 61q0 32 0.5 60t5 53t14.5 46.5t30 40.5q54 57 136 57q71 0 122 -42t64 -123h-105q-7 30 -26.5 50.5t-54.5 20.5q-38 0 -59 -26q-7 -8 -11.5 -16.5t-7 -23.5t-3.5 -38
t-1 -59q0 -35 1 -58t3.5 -38t7 -24.5t11.5 -16.5q10 -11 25 -18t34 -7q35 0 54.5 20.5t26.5 50.5h101z" />
    <glyph glyph-name="D" unicode="D" horiz-adv-x="480" 
d="M431 254q0 -49 -6 -94.5t-25.5 -81t-56 -57t-98.5 -21.5h-184v502h184q60 0 97 -20.5t56.5 -55t26 -79t6.5 -93.5zM327 254q0 37 -1.5 65.5t-10.5 48.5t-27.5 30.5t-51.5 10.5h-71v-315h71q34 0 52.5 11t27 31.5t10 50t1.5 67.5z" />
    <glyph glyph-name="E" unicode="E" horiz-adv-x="419" 
d="M61 0v502h337v-93h-233v-108h199v-94h-199v-113h233v-94h-337z" />
    <glyph glyph-name="F" unicode="F" horiz-adv-x="391" 
d="M165 409v-114h187v-94h-187v-201h-104v502h326v-93h-222z" />
    <glyph glyph-name="G" unicode="G" horiz-adv-x="458" 
d="M420 207q0 -56 -11 -91t-37 -62q-31 -32 -66.5 -45.5t-76.5 -13.5q-42 0 -76 15t-60 41q-20 19 -30 40.5t-14.5 46t-5 52.5t-0.5 61q0 32 0.5 60t5 53t14.5 46.5t30 40.5q26 28 59.5 42.5t76.5 14.5q44 0 77.5 -13.5t57 -37t37.5 -53.5t19 -63h-105q-8 35 -29.5 54
t-56.5 19q-20 0 -34.5 -7.5t-24.5 -18.5q-7 -8 -11.5 -17t-7 -24t-3.5 -38t-1 -58t1 -58t3.5 -38t7 -24.5t11.5 -16.5q10 -11 24.5 -18t34.5 -7q21 0 37.5 8t27.5 20q23 23 23 63v15h-91v88h194v-76v0z" />
    <glyph glyph-name="H" unicode="H" horiz-adv-x="496" 
d="M330 0v208h-165v-208h-104v502h104v-201h165v201h105v-502h-105z" />
    <glyph glyph-name="I" unicode="I" horiz-adv-x="236" 
d="M66 0v502h104v-502h-104z" />
    <glyph glyph-name="J" unicode="J" horiz-adv-x="343" 
d="M285 166q0 -42 -15 -73.5t-39.5 -53.5t-57 -33t-68.5 -11q-41 0 -72.5 12.5t-61.5 42.5l70 69q13 -13 27 -21.5t37 -8.5q35 0 55 20.5t20 61.5v331h105v-336v0z" />
    <glyph glyph-name="K" unicode="K" horiz-adv-x="475" 
d="M354 0l-128 222l-61 -72v-150h-104v502h104v-207l171 207h130l-170 -200l180 -302h-122z" />
    <glyph glyph-name="L" unicode="L" horiz-adv-x="385" 
d="M61 0v502h104v-408h214v-94h-318z" />
    <glyph glyph-name="M" unicode="M" horiz-adv-x="583" 
d="M417 0v284l-90 -176h-70l-92 175v-283h-104v502h95l135 -271l135 271h96v-502h-105z" />
    <glyph glyph-name="N" unicode="N" horiz-adv-x="525" 
d="M379 0l-214 311v-311h-104v502h84l213 -308v308h106v-502h-85z" />
    <glyph glyph-name="O" unicode="O" horiz-adv-x="460" 
d="M417 251q0 -33 -1 -61t-5.5 -52.5t-14.5 -46t-29 -40.5q-27 -26 -60 -41t-77 -15q-43 0 -76.5 15t-59.5 41q-20 19 -30 40.5t-14.5 46t-5 52.5t-0.5 61q0 32 0.5 60t5 53t14.5 46.5t30 40.5q26 28 59.5 42.5t76.5 14.5q44 0 77.5 -14.5t59.5 -42.5q19 -19 29 -40.5
t14.5 -46.5t5.5 -53t1 -60zM313 251q0 35 -1 58t-4 38t-7.5 24t-11.5 17q-10 11 -24.5 18.5t-34.5 7.5q-19 0 -34 -7.5t-25 -18.5q-7 -8 -11.5 -17t-7 -24t-3.5 -38t-1 -58t1 -57.5t3.5 -37.5t7 -24.5t11.5 -16.5q10 -11 25 -18.5t34 -7.5q20 0 34.5 7.5t24.5 18.5
q7 7 11.5 16.5t7.5 24.5t4 37.5t1 57.5z" />
    <glyph glyph-name="P" unicode="P" horiz-adv-x="433" 
d="M418 345q0 -33 -11.5 -61.5t-33.5 -50.5t-53 -34.5t-70 -12.5h-85v-186h-104v502h189q39 0 70 -12.5t53 -34t33.5 -50t11.5 -60.5zM313 345q0 29 -18.5 46.5t-50.5 17.5h-79v-128h79q32 0 50.5 17.5t18.5 46.5z" />
    <glyph glyph-name="Q" unicode="Q" horiz-adv-x="460" 
d="M375 -23l-44 45q-44 -27 -100 -27q-43 0 -76.5 15t-60.5 41q-19 19 -29.5 40.5t-15 46t-5 52.5t-0.5 61q0 32 0.5 60t5 53t15 46.5t29.5 40.5q54 57 137 57q84 0 136 -57q19 -19 29.5 -40.5t15 -46.5t5.5 -53t1 -60q0 -55 -4 -97t-26 -77l43 -43zM314 251q0 35 -1 58
t-4 38t-7.5 24t-11.5 17q-10 11 -24.5 18.5t-34.5 7.5q-19 0 -34 -7.5t-25 -18.5q-7 -8 -11.5 -17t-7 -24t-3.5 -38t-1 -58t1 -57.5t3.5 -37.5t7 -24.5t11.5 -16.5q10 -11 25 -18.5t34 -7.5q7 0 14 2t12 4l-42 42l57 57l35 -35q7 28 7 92z" />
    <glyph glyph-name="R" unicode="R" horiz-adv-x="465" 
d="M328 0l-98 197h-65v-197h-104v502h200q39 0 70 -12.5t52.5 -33.5t32.5 -49t11 -60q0 -24 -7.5 -45t-20 -37.5t-29 -29t-33.5 -19.5l113 -216h-122zM321 347q0 28 -17.5 45t-48.5 17h-90v-122h90q31 0 48.5 16.5t17.5 43.5z" />
    <glyph glyph-name="S" unicode="S" horiz-adv-x="410" 
d="M383 149q0 -37 -14.5 -65.5t-40 -48t-60 -30t-74.5 -10.5q-59 0 -104.5 15.5t-84.5 54.5l69 68q25 -24 55.5 -34t64.5 -10q42 0 63.5 15.5t21.5 43.5q0 26 -15 38t-41 17l-60 8q-63 10 -99.5 43t-36.5 99q0 69 46.5 111.5t131.5 42.5q52 0 92 -14.5t75 -46.5l-68 -66
q-25 23 -52 29t-50 6q-38 0 -55.5 -17t-17.5 -41t16.5 -36.5t40.5 -15.5l59 -8q65 -10 101.5 -45.5t36.5 -102.5z" />
    <glyph glyph-name="T" unicode="T" horiz-adv-x="370" 
d="M237 411v-411h-105v411h-130v91h366v-91h-131z" />
    <glyph glyph-name="U" unicode="U" horiz-adv-x="486" 
d="M429 173q0 -40 -14.5 -72.5t-39.5 -56t-59 -36.5t-73 -13t-73.5 13t-59.5 36.5t-39.5 56t-14.5 72.5v329h106v-325q0 -42 21.5 -65t59.5 -23t60 23t22 65v325h104v-329v0z" />
    <glyph glyph-name="V" unicode="V" horiz-adv-x="433" 
d="M256 0h-79l-169 502h110l98 -312l98 312h111z" />
    <glyph glyph-name="W" unicode="W" horiz-adv-x="637" 
d="M495 0h-75l-101 313l-103 -313h-74l-136 502h110l75 -300l88 300h79l88 -300l76 300h109z" />
    <glyph glyph-name="X" unicode="X" horiz-adv-x="428" 
d="M308 0l-95 169l-94 -169h-120l158 258l-149 244h120l85 -156l87 156h118l-148 -244l159 -258h-121z" />
    <glyph glyph-name="Y" unicode="Y" horiz-adv-x="421" 
d="M263 206v-206h-105v206l-153 296h116l90 -192l90 192h115z" />
    <glyph glyph-name="Z" unicode="Z" horiz-adv-x="408" 
d="M36 0v82l211 327h-202v93h327v-80l-211 -328h211v-94h-336z" />
    <glyph glyph-name="bracketleft" unicode="[" horiz-adv-x="283" 
d="M70 -93v742h186v-94h-82v-555h82v-93h-186z" />
    <glyph glyph-name="backslash" unicode="\" horiz-adv-x="311" 
d="M-7 646h98l228 -705h-98z" />
    <glyph glyph-name="bracketright" unicode="]" horiz-adv-x="283" 
d="M27 -93v93h82v555h-82v94h186v-742h-186z" />
    <glyph glyph-name="asciicircum" unicode="^" horiz-adv-x="425" 
d="M290 264l-77 142l-77 -142h-102l134 248h90l134 -248h-102z" />
    <glyph glyph-name="underscore" unicode="_" horiz-adv-x="405" 
d="M0 -143v65h405v-65h-405z" />
    <glyph glyph-name="grave" unicode="`" horiz-adv-x="394" 
d="M174 386l-92 130h99l79 -130h-86z" />
    <glyph glyph-name="a" unicode="a" horiz-adv-x="383" 
d="M243 0v33q-20 -19 -40.5 -28t-53.5 -9q-26 0 -49.5 8t-41 23t-27.5 37.5t-10 51.5q0 22 8 43t23.5 36.5t40 25t57.5 9.5h91v14q0 32 -17 46.5t-55 14.5q-25 0 -42 -8.5t-32 -22.5l-59 58q28 27 60 39.5t77 12.5q80 0 121 -33.5t41 -100.5v-250h-92zM241 156h-76
q-26 0 -39.5 -9t-13.5 -30q0 -20 13.5 -32t40.5 -12q20 0 34 3.5t27 15.5q14 14 14 48v16z" />
    <glyph glyph-name="b" unicode="b" horiz-adv-x="406" 
d="M379 191q0 -35 -4.5 -69.5t-19.5 -63t-43 -46t-74 -17.5q-31 0 -54.5 9.5t-43.5 31.5v-36h-91v550h95v-203q19 20 41.5 28.5t52.5 8.5q42 0 69.5 -15.5t43.5 -41.5t22 -61.5t6 -74.5zM281 191q0 46 -14 77t-57 31q-23 0 -36 -8.5t-19.5 -23t-8.5 -34t-2 -42.5t2 -43
t8.5 -35t19.5 -23.5t36 -8.5q43 0 57 31.5t14 78.5z" />
    <glyph glyph-name="c" unicode="c" horiz-adv-x="362" 
d="M338 47q-26 -26 -56.5 -39t-70.5 -13q-29 0 -59 9t-55 31.5t-41 60t-16 95.5q0 57 16 94.5t41 59.5t55 30.5t59 8.5q77 0 127 -50l-65 -65q-27 30 -62 30q-22 0 -36.5 -9.5t-23.5 -25t-12.5 -35t-3.5 -38.5q0 -18 3.5 -37t12 -35.5t23 -27t37.5 -10.5q19 0 33.5 6.5
t28.5 23.5l65 -64v0z" />
    <glyph glyph-name="d" unicode="d" horiz-adv-x="406" 
d="M27 191q0 39 6 74.5t22 61.5t43.5 41.5t69.5 15.5q30 0 52.5 -8.5t41.5 -28.5v203h95v-550h-91v36q-20 -22 -43.5 -31.5t-54.5 -9.5q-46 0 -74 17.5t-43 46t-19.5 63t-4.5 69.5zM125 191q0 -23 3 -43t11 -35t21.5 -23.5t35.5 -8.5t35.5 8.5t20 23.5t8.5 35t2 43t-2 42.5
t-8.5 34t-20 23t-35.5 8.5t-35.5 -8.5t-21.5 -23t-11 -34t-3 -42.5z" />
    <glyph glyph-name="e" unicode="e" horiz-adv-x="386" 
d="M119 161q0 -37 22.5 -61t61.5 -24q32 0 50.5 8.5t37.5 27.5l58 -57q-30 -29 -62.5 -44.5t-84.5 -15.5q-34 0 -66 9t-57 31.5t-40 60t-15 95.5q0 93 47 143t122 50q40 0 71 -13.5t52.5 -38t32.5 -57.5t11 -72v-42h-241zM265 226q0 30 -18.5 54.5t-53.5 24.5
q-34 0 -52.5 -22.5t-21.5 -56.5h146z" />
    <glyph glyph-name="f" unicode="f" horiz-adv-x="210" 
d="M142 307v-307h-95v307h-39v73h39v61q0 20 6.5 39.5t20 35t34.5 25t50 9.5h54v-81h-37q-33 0 -33 -34v-55h70v-73h-70z" />
    <glyph glyph-name="g" unicode="g" horiz-adv-x="404" 
d="M355 -24q0 -34 -12 -63t-34 -50t-53.5 -32.5t-70.5 -11.5q-45 0 -77.5 10.5t-63.5 38.5l61 61q16 -16 34 -23.5t42 -7.5q22 0 37 7t24 18t13 25.5t4 28.5v58q-18 -20 -40.5 -29t-51.5 -9q-41 0 -67.5 16t-41.5 43t-20.5 62t-5.5 73q0 34 5 68t19.5 62t41 45.5t70.5 17.5
q31 0 53 -9t42 -31v36h92v-404zM259 200q0 19 -2 37t-8.5 31.5t-19 22t-34.5 8.5q-21 0 -34.5 -9.5t-21 -25t-10.5 -35t-3 -38.5t3 -38t10.5 -34.5t21 -25.5t34.5 -10q22 0 34.5 11t19 28.5t8.5 38t2 39.5z" />
    <glyph glyph-name="h" unicode="h" horiz-adv-x="410" 
d="M267 0v232q0 19 -5.5 31.5t-14.5 20.5t-20 11.5t-22 3.5q-23 0 -42 -15t-19 -52v-232h-95v550h95v-205q19 20 42 29.5t49 9.5q63 0 95 -39t32 -99v-246h-95z" />
    <glyph glyph-name="i" unicode="i" horiz-adv-x="197" 
d="M51 0v380h95v-380h-95zM43 507q0 23 16 38.5t39 15.5t38.5 -15.5t15.5 -38.5t-15.5 -39t-38.5 -16t-39 16t-16 39z" />
    <glyph glyph-name="j" unicode="j" horiz-adv-x="197" 
d="M146 -47q0 -20 -6.5 -39.5t-20 -34.5t-34.5 -24.5t-50 -9.5h-55v80h37q34 0 34 35v420h95v-427zM43 507q0 23 16 38.5t39 15.5t38.5 -15.5t15.5 -38.5t-15.5 -39t-38.5 -16t-39 16t-16 39z" />
    <glyph glyph-name="k" unicode="k" horiz-adv-x="385" 
d="M277 0l-94 158l-39 -45v-113h-95v550h95v-325l126 155h114l-136 -153l146 -227h-117z" />
    <glyph glyph-name="l" unicode="l" horiz-adv-x="214" 
d="M160 0q-29 0 -50 9.5t-34.5 25t-20 35t-6.5 39.5v441h95v-435q0 -17 7.5 -26t25.5 -9h36v-80h-53z" />
    <glyph glyph-name="m" unicode="m" horiz-adv-x="661" 
d="M515 0v229q0 20 -7 33.5t-17.5 21.5t-23.5 11.5t-24 3.5q-22 0 -43.5 -15t-21.5 -52v-232h-95v229q0 20 -6.5 33.5t-17 21.5t-23 11.5t-23.5 3.5t-23 -3.5t-22 -11.5t-16 -21.5t-6 -33.5v-229h-95v380h92v-35q19 19 46.5 29t53.5 10q32 0 60.5 -11.5t46.5 -35.5
q47 47 115 47q30 0 56.5 -10.5t46 -29.5t31 -44.5t11.5 -56.5v-243h-95z" />
    <glyph glyph-name="n" unicode="n" horiz-adv-x="410" 
d="M270 0v229q0 40 -18.5 55t-41.5 15q-11 0 -23 -4.5t-21.5 -14t-15.5 -23.5t-6 -32v-225h-95v380h92v-40q20 21 43 32.5t52 11.5q30 0 54 -11t40.5 -29.5t25.5 -44.5t9 -56v-243h-95z" />
    <glyph glyph-name="o" unicode="o" horiz-adv-x="397" 
d="M365 191q0 -42 -8.5 -78t-28 -62.5t-51.5 -41t-80 -14.5q-47 0 -79 15t-51 41t-27 62t-8 78t8 77t27 61t51 40.5t79 14.5t79 -14.5t52 -40t28.5 -61t8.5 -77.5zM270 191q0 21 -2.5 40.5t-10.5 34.5t-22 24t-38 9q-23 0 -37 -9.5t-21.5 -24.5t-10 -34.5t-2.5 -39.5
q0 -21 2.5 -41t10 -35t21.5 -24.5t37 -9.5q24 0 38 9t22 24.5t10.5 35.5t2.5 41z" />
    <glyph glyph-name="p" unicode="p" horiz-adv-x="406" 
d="M379 189q0 -39 -6 -74.5t-22 -62t-43.5 -42t-69.5 -15.5q-30 0 -52.5 9t-41.5 29v-203h-95v550h91v-36q20 22 43.5 31t54.5 9q46 0 74 -17.5t43 -45.5t19.5 -63t4.5 -69zM281 189q0 23 -3 43t-11 35t-21.5 23.5t-35.5 8.5q-23 0 -36 -8.5t-19.5 -23.5t-8.5 -35t-2 -43
t2 -42.5t8.5 -34t19.5 -23t36 -8.5q43 0 57 31t14 77z" />
    <glyph glyph-name="q" unicode="q" horiz-adv-x="406" 
d="M27 189q0 34 4.5 69t19.5 63t43 45.5t74 17.5q31 0 54.5 -9t43.5 -31v36h91v-550h-95v203q-19 -20 -41.5 -29t-52.5 -9q-42 0 -69.5 15.5t-43.5 42t-22 62t-6 74.5zM125 189q0 -23 3 -42.5t11 -34t21.5 -23t35.5 -8.5t35.5 8.5t20 23t8.5 34t2 42.5t-2 43t-8.5 35
t-20 23.5t-35.5 8.5t-35.5 -8.5t-21.5 -23.5t-11 -35t-3 -43z" />
    <glyph glyph-name="r" unicode="r" horiz-adv-x="263" 
d="M235 292q-14 7 -30 7q-22 0 -41.5 -17t-19.5 -53v-229h-95v380h92v-37q14 17 39.5 29t56.5 12q17 0 30 -2.5t26 -9.5z" />
    <glyph glyph-name="s" unicode="s" horiz-adv-x="365" 
d="M338 119q0 -31 -12.5 -54.5t-34 -39t-50.5 -23t-62 -7.5q-45 0 -85 9.5t-75 46.5l61 62q23 -24 50.5 -30.5t49.5 -6.5q25 0 45.5 9t20.5 31q0 14 -8.5 23.5t-29.5 11.5l-61 6q-51 5 -80 29.5t-29 76.5q0 30 12 52.5t32 37.5t46 23t55 8q44 0 80.5 -9t63.5 -35l-58 -59
q-17 15 -40 20t-48 5q-28 0 -40 -11t-12 -25q0 -5 1 -10.5t5 -10t11.5 -8t20.5 -4.5l60 -6q56 -5 83.5 -34t27.5 -78z" />
    <glyph glyph-name="t" unicode="t" horiz-adv-x="226" 
d="M163 0q-29 0 -49.5 9.5t-34 25t-20 35t-6.5 39.5v198h-41v73h41v119h95v-119h66v-73h-66v-192q0 -35 33 -35h33v-80h-51z" />
    <glyph glyph-name="u" unicode="u" horiz-adv-x="411" 
d="M141 380v-230q0 -39 18.5 -54t41.5 -15q11 0 23 3.5t21.5 11.5t15.5 21t6 33v230h95v-380h-92v35q-20 -20 -44.5 -30t-50.5 -10q-30 0 -54 11t-40.5 30t-25.5 45t-9 56v243h95z" />
    <glyph glyph-name="v" unicode="v" horiz-adv-x="375" 
d="M226 0h-75l-142 380h101l79 -235l77 235h101z" />
    <glyph glyph-name="w" unicode="w" horiz-adv-x="571" 
d="M446 0h-79l-81 238l-80 -238h-79l-118 380h102l62 -235l78 235h69l79 -235l63 235h100z" />
    <glyph glyph-name="x" unicode="x" horiz-adv-x="377" 
d="M258 0l-70 114l-70 -114h-113l131 194l-126 186h114l64 -109l65 109h114l-126 -186l130 -194h-113z" />
    <glyph glyph-name="y" unicode="y" horiz-adv-x="375" 
d="M191 -94q-14 -37 -41.5 -57.5t-69.5 -20.5h-38v86h23q20 0 30 6.5t17 26.5l28 80l-132 353h101l80 -235l77 235h101z" />
    <glyph glyph-name="z" unicode="z" horiz-adv-x="343" 
d="M27 0v72l169 222h-159v86h279v-73l-170 -221h170v-86h-289z" />
    <glyph glyph-name="braceleft" unicode="{" horiz-adv-x="308" 
d="M216 -84q-50 0 -83 28.5t-33 82.5v137q0 33 -13 46q-14 14 -39 14h-25v87h25q14 0 23.5 4.5t15.5 9.5q7 8 10 28t3 36v109q0 54 30 83t86 29h67v-88h-30q-29 0 -42.5 -12.5t-13.5 -46.5v-120q0 -20 -5.5 -33.5t-13 -21.5t-16.5 -12.5t-16 -7.5q7 -3 16 -7.5t16.5 -13
t13 -21.5t5.5 -33v-130q0 -29 12 -44t44 -15h30v-88h-67z" />
    <glyph glyph-name="bar" unicode="|" horiz-adv-x="249" 
d="M75 -55v663h98v-663h-98z" />
    <glyph glyph-name="braceright" unicode="}" horiz-adv-x="308" 
d="M25 -84v88h30q33 0 44.5 15t11.5 44v130q0 20 5.5 33t13 21.5t16.5 13t17 7.5q-8 3 -17 7.5t-16.5 12.5t-13 21.5t-5.5 33.5v120q0 34 -13.5 46.5t-42.5 12.5h-30v88h67q56 0 86.5 -29t30.5 -83v-109q0 -16 2.5 -36t9.5 -28q6 -5 16 -9.5t23 -4.5h26v-87h-26
q-25 0 -39 -14q-12 -12 -12 -46v-137q0 -54 -33.5 -82.5t-83.5 -28.5h-67z" />
    <glyph glyph-name="asciitilde" unicode="~" horiz-adv-x="467" 
d="M433 205q-23 -23 -46.5 -38.5t-49 -21.5t-54 -1t-61.5 22t-64 16t-63 -30l-61 61q22 23 45.5 38.5t49 21.5t54 1t61.5 -22q34 -17 64.5 -16t62.5 30l62 -61v0z" />
    <glyph glyph-name="uni00A0" unicode="&#xa0;" horiz-adv-x="209" 
 />
    <glyph glyph-name="cent" unicode="&#xa2;" horiz-adv-x="392" 
d="M340 147q-32 -39 -55.5 -53t-51.5 -18v-62h-70v66q-57 12 -89.5 59t-32.5 119q0 71 32.5 117.5t89.5 58.5v53h70v-51q27 -4 54 -20t55 -49l-56 -48q-19 20 -31 31t-22 15v-216q23 11 55 46l51 -46zM163 358q-26 -14 -36 -41t-10 -59q0 -31 9 -59.5t37 -42.5v202z" />
    <glyph glyph-name="sterling" unicode="&#xa3;" horiz-adv-x="385" 
d="M53 0v214h-46v78h46v51q0 76 48 121t131 45q41 0 77.5 -16.5t73.5 -49.5l-66 -61q-20 16 -39.5 29t-45.5 13q-41 0 -62.5 -22.5t-21.5 -64.5v-45h112v-78h-112v-129h223v-85h-318z" />
    <glyph glyph-name="yen" unicode="&#xa5;" horiz-adv-x="421" 
d="M316 308h72v-80h-114l-11 -22v-23h125v-80h-125v-103h-105v103h-126v80h126v23l-12 22h-114v80h72l-99 194h116l90 -192l90 192h115z" />
    <glyph glyph-name="copyright" unicode="&#xa9;" horiz-adv-x="635" 
d="M588 258q0 -56 -21 -105.5t-57.5 -86.5t-86 -58t-105.5 -21t-105.5 21t-86.5 58t-58.5 86.5t-21.5 105.5t21.5 105.5t58.5 86t86.5 58t105.5 21.5t105.5 -21.5t86 -58t57.5 -86t21 -105.5zM514 258q0 40 -15.5 76.5t-42.5 63.5t-62.5 43t-75.5 16q-41 0 -76.5 -16
t-62.5 -43t-42.5 -63.5t-15.5 -76.5t15.5 -76t42.5 -63.5t62.5 -43.5t76.5 -16q40 0 75.5 16t62.5 43.5t42.5 63.5t15.5 76zM438 156q-16 -15 -29 -25t-26 -16t-26.5 -9t-29.5 -3q-35 0 -61 12.5t-42.5 34t-24.5 49.5t-8 59q0 33 8 61.5t24.5 49.5t42.5 33.5t61 12.5
q31 0 57 -14t54 -40l-45 -48q-21 20 -36 28t-30 8q-19 0 -31.5 -7.5t-20 -20.5t-11 -29t-3.5 -34q0 -17 3.5 -33t11 -28t20 -19t31.5 -7q16 0 31.5 6.5t36.5 26.5z" />
    <glyph glyph-name="guillemotleft" unicode="&#xab;" horiz-adv-x="461" 
d="M233 204l188 186v-116l-72 -70l72 -70v-116zM23 204l188 186v-116l-71 -70l71 -70v-116z" />
    <glyph glyph-name="registered" unicode="&#xae;" horiz-adv-x="635" 
d="M588 258q0 -56 -21 -105.5t-57.5 -86.5t-86 -58t-105.5 -21t-105.5 21t-86.5 58t-58.5 86.5t-21.5 105.5t21.5 105.5t58.5 86t86.5 58t105.5 21.5t105.5 -21.5t86 -58t57.5 -86t21 -105.5zM514 258q0 40 -15.5 76.5t-42.5 63.5t-62.5 43t-75.5 16q-41 0 -76.5 -16
t-62.5 -43t-42.5 -63.5t-15.5 -76.5t15.5 -76t42.5 -63.5t62.5 -43.5t76.5 -16q40 0 75.5 16t62.5 43.5t42.5 63.5t15.5 76zM358 119l-58 99h-11v-99h-64v281h98q39 0 66 -25t27 -67q0 -26 -12 -47.5t-32 -33.5q9 -15 18 -31t19 -31l27 -46h-78zM352 308q0 12 -9 21t-23 9
h-31v-59h31q14 0 23 8.5t9 20.5z" />
    <glyph glyph-name="guillemotright" unicode="&#xbb;" horiz-adv-x="461" 
d="M39 18v116l73 70l-73 70v116l188 -186zM250 18v116l71 70l-71 70v116l187 -186z" />
    <glyph glyph-name="onequarter" unicode="&#xbc;" horiz-adv-x="606" 
d="M217 0h-78l260 501h76zM100 188v225l-57 -45v77l71 56h56v-313h-70zM551 43v-43h-69v43h-131v46l107 203h75l-98 -186h47v77h69v-77h36v-63h-36z" />
    <glyph glyph-name="onehalf" unicode="&#xbd;" horiz-adv-x="606" 
d="M369 0v51l126 144q4 5 7 12t3 15q0 32 -34 32q-12 0 -22.5 -11t-10.5 -39h-69q2 48 29.5 80t72.5 32q48 0 76.5 -26t28.5 -68q0 -20 -7.5 -34.5t-23.5 -34.5l-80 -91h111v-62h-207zM198 0h-78l260 501h76zM100 188v225l-57 -45v77l71 56h56v-313h-70z" />
    <glyph glyph-name="threequarters" unicode="&#xbe;" horiz-adv-x="606" 
d="M551 43v-43h-69v43h-131v46l107 203h75l-98 -186h47v77h69v-77h36v-63h-36zM244 0h-77l259 499h77zM250 282q0 -50 -31 -73.5t-77 -23.5q-45 0 -76.5 25.5t-33.5 84.5h68q3 -27 14.5 -38t27.5 -11q17 0 27 9t10 27q0 15 -10 26.5t-30 11.5h-9v54h9q19 0 27 9t8 23
q0 17 -10 25t-23 8q-32 0 -37 -46h-71q6 52 35.5 80.5t72.5 28.5q46 0 75 -25.5t29 -69.5q0 -17 -7 -31.5t-18 -26.5q13 -11 21.5 -29t8.5 -38z" />
    <glyph glyph-name="multiply" unicode="&#xd7;" horiz-adv-x="424" 
d="M327 29l-116 117l-115 -117l-63 64l116 116l-115 115l62 63l115 -115l116 115l63 -63l-116 -115l116 -116z" />
    <glyph glyph-name="divide" unicode="&#xf7;" horiz-adv-x="405" 
d="M29 161v91h346v-91h-346zM148 352q0 23 15.5 39t38.5 16t39 -16t16 -39t-16 -38.5t-39 -15.5t-38.5 15.5t-15.5 38.5zM148 64q0 23 15.5 38.5t38.5 15.5t39 -15.5t16 -38.5t-16 -39t-39 -16t-38.5 16t-15.5 39z" />
    <glyph glyph-name="kokaithai" unicode="&#xe01;" horiz-adv-x="460" 
d="M163 239v-239h-100v223l-45 60q28 63 81 94t126 31q95 0 140 -44.5t45 -122.5v-241h-100v235q0 87 -86 85q-20 0 -48 -5.5t-46 -27.5z" />
    <glyph glyph-name="khokhaithai" unicode="&#xe02;" horiz-adv-x="391" 
d="M143 136q0 -24 12 -38t38 -14t36.5 14t10.5 38v268h101v-270q0 -31 -11 -56.5t-30.5 -44t-46.5 -28.5t-60 -10q-68 0 -108 38.5t-42 100.5v44q0 22 6 34.5t18 25.5l53 59q5 5 9.5 10.5t4.5 8.5q0 14 -14 14q-7 0 -22 -9t-29 -22l-70 47q63 62 118 62q48 0 77 -26t29 -70
q0 -20 -9.5 -38.5t-25.5 -37.5l-41 -48q-4 -5 -4 -18v-34z" />
    <glyph glyph-name="khokhuatthai" unicode="&#xe03;" horiz-adv-x="401" 
d="M142 136q0 -23 14 -37t41 -14q25 0 38.5 14t13.5 37v268h102v-270q0 -31 -11.5 -56.5t-32.5 -44t-49 -28.5t-61 -10t-61.5 10t-49 28.5t-32 44t-12.5 56.5v38q0 37 25 64l78 75q3 3 7 7.5t4 8.5q0 2 -1.5 5.5t-6.5 3.5q-6 0 -16 -9l-21 -19q-20 -17 -43 -1l-79 54l56 54
l45 -30q14 10 30 16t33 6q40 0 66 -23.5t26 -60.5q0 -20 -11 -41.5t-31 -41.5l-58 -55q-2 -2 -2.5 -9.5t-0.5 -9.5v-30z" />
    <glyph glyph-name="khokhwaithai" unicode="&#xe04;" horiz-adv-x="460" 
d="M149 0h-99v250q0 41 15 70.5t39.5 49t57 29t68.5 9.5t68.5 -9.5t57 -29t39.5 -49t15 -70.5v-250h-99v244q0 39 -21.5 56.5t-59.5 17.5q-37 0 -59 -16.5t-22 -53.5v-24q5 2 11 3.5t10 1.5h64v-82h-57q-17 0 -22.5 -7t-5.5 -21v-119z" />
    <glyph glyph-name="khokhonthai" unicode="&#xe05;" horiz-adv-x="476" 
d="M152 216q5 2 11 2.5t10 0.5h70v-82h-64q-17 0 -22 -7.5t-5 -21.5v-108h-101v260q0 57 31.5 94t85.5 55l70 -55l68 57q53 -14 85.5 -52.5t34.5 -98.5v-260h-100v253q0 30 -12 50l-40 -29q-20 -15 -37 -15t-34 14l-39 30q-7 -9 -9.5 -22t-2.5 -28v-37z" />
    <glyph glyph-name="khorakhangthai" unicode="&#xe06;" horiz-adv-x="445" 
d="M151 311q3 3 7 8t4 8q0 2 -1.5 5.5t-6.5 3.5q-7 0 -17 -9l-21 -19q-20 -17 -42 -1l-79 54l56 54l45 -30q14 10 30 16t33 6q40 0 66 -23.5t26 -60.5q0 -20 -11 -41.5t-31 -41.5l-58 -55q-2 -2 -2.5 -9.5t-0.5 -9.5v-4q0 -36 20 -56t53 -20q73 0 73 76v242h101v-251
q0 -41 -12.5 -70.5t-34 -48.5t-49.5 -28.5t-58 -9.5q-28 0 -54.5 13.5t-37.5 28.5v-38h-101v172q0 37 25 64z" />
    <glyph glyph-name="ngonguthai" unicode="&#xe07;" horiz-adv-x="325" 
d="M68 133q22 -49 58 -49q26 0 37 14t11 38v181h-54v87h155v-270q0 -67 -38.5 -103t-110.5 -36q-54 0 -89 25.5t-55 70.5z" />
    <glyph glyph-name="chochanthai" unicode="&#xe08;" horiz-adv-x="383" 
d="M-10 310q54 98 167 98q39 0 71 -10t55.5 -29.5t36.5 -49.5t13 -69v-250h-101v119q0 14 -5.5 21t-20.5 7h-64v82h70q5 0 10 -1t10 -5v24q0 35 -19.5 53t-55.5 18q-23 0 -43.5 -12.5t-34.5 -40.5z" />
    <glyph glyph-name="chochingthai" unicode="&#xe09;" horiz-adv-x="445" 
d="M46 313q26 48 70 71.5t99 23.5q39 0 72 -10t57 -29.5t37.5 -49t13.5 -68.5v-251h-101v37q-15 -17 -35.5 -29t-50.5 -12q-35 0 -64 10.5t-51 31t-34.5 49.5t-13.5 66v77h101v-69q0 -76 71 -76q34 0 55.5 21t21.5 55v83q0 75 -79 75q-23 0 -44.5 -12t-35.5 -37z" />
    <glyph glyph-name="chochangthai" unicode="&#xe0a;" horiz-adv-x="414" 
d="M134 298q5 5 8 9t3 11q0 12 -12 10q-7 -1 -22.5 -11.5t-26.5 -20.5l-74 50q63 62 118 62q48 0 77 -26t29 -70q0 -20 -9.5 -38.5t-25.5 -37.5l-41 -48q-2 -3 -3 -8.5t-1 -11.5v-22q0 -24 14 -41.5t40 -17.5q53 0 53 51v126q0 11 -6.5 17.5t-11.5 9.5q-11 6 -19 12.5
t-8 17.5q0 7 4 16t15 18l122 115l71 -65l-87 -80q8 -11 14.5 -25.5t6.5 -31.5v-132q0 -31 -11.5 -56.5t-32 -44t-49 -28.5t-61.5 -10q-34 0 -62 11.5t-48 31.5t-31.5 47t-12.5 57v34q0 22 6 35.5t18 26.5z" />
    <glyph glyph-name="sosothai" unicode="&#xe0b;" horiz-adv-x="436" 
d="M253 323q0 -20 -11.5 -42.5t-29.5 -43.5l-41 -49q-2 -3 -3.5 -7.5t-1.5 -12.5v-22q0 -24 16 -42t44 -18q26 0 41.5 13.5t15.5 38.5v130q0 6 -6.5 12t-13.5 10l1 -1q-12 5 -20 13t-8 19q0 14 19 33l120 114l70 -60l-84 -81q10 -11 16 -24.5t6 -34.5v-132q0 -31 -12 -56.5
t-33.5 -44t-50 -28.5t-61.5 -10q-34 0 -63 11.5t-50.5 31.5t-34 47t-12.5 57v29q0 26 7.5 40.5t18.5 27.5l63 70q8 8 8 16q0 2 -1.5 5t-6.5 3q-6 0 -16 -9l-20 -18q-20 -17 -43 -1l-79 54l56 54l45 -30q14 10 30 16t33 6q40 0 66 -23.5t26 -60.5z" />
    <glyph glyph-name="chochoethai" unicode="&#xe0c;" horiz-adv-x="691" 
d="M64 223l-45 60q28 63 81 94t126 31q95 0 140 -44.5t45 -122.5v-80q0 -34 20.5 -55t47.5 -21q29 0 45.5 20t16.5 56v243h100v-251q0 -39 -11 -68.5t-30 -49t-45 -29.5t-55 -10q-28 0 -53 13.5t-36 28.5v-38h-100v235q0 87 -86 85q-20 0 -48 -5.5t-46 -27.5l33 -48v-131
q0 -8 2 -13t10 -5h45v-90h-53q-57 0 -80.5 28.5t-23.5 78.5v116z" />
    <glyph glyph-name="yoyingthai" unicode="&#xe0d;" horiz-adv-x="684" 
d="M398 0q0 -29 13 -29h218v-83h-234q-15 0 -30.5 4t-28 16t-20.5 34t-8 58h90zM164 108q0 -8 2 -13t10 -5h45v-90h-53q-57 0 -80.5 28.5t-23.5 78.5v116l-45 60q28 63 81 94t126 31q95 0 140 -44.5t45 -122.5v-57q0 -37 15.5 -57t43.5 -20q29 0 47 20t18 57v220h99v-228
q0 -32 -9.5 -61t-29.5 -50.5t-50.5 -34t-72.5 -12.5q-80 0 -120.5 41t-40.5 117v59q0 87 -86 85q-20 0 -48 -5.5t-46 -27.5l33 -48v-131z" />
    <glyph glyph-name="dochadathai" unicode="&#xe0e;" horiz-adv-x="470" 
d="M420 -79q0 -19 -6 -33.5t-14 -24t-16.5 -15t-13.5 -7.5q-32 -14 -67 0l-76 32q-7 3 -13 0l-99 -48l-53 63l130 63q14 7 27 7.5t30 -7.5l62 -26q3 -1 6 0t3 6v304q0 87 -86 85q-20 0 -48 -5.5t-46 -27.5l33 -48v-132q0 -36 -14.5 -57.5t-35.5 -33t-44 -14.5t-41 -3l-19 88
q19 -1 29.5 2t16 7.5t7 9.5t1.5 10v107l-45 60q28 63 81 94t126 31q95 0 140 -44.5t45 -122.5v-320z" />
    <glyph glyph-name="topatakthai" unicode="&#xe0f;" horiz-adv-x="470" 
d="M420 -80q0 -16 -5.5 -31.5t-16 -28t-26 -20.5t-35.5 -8q-19 0 -37 10l-54 29q-5 3 -9 0l-47 -28q-19 -11 -35.5 -9t-28.5 10l-111 75l82 44l60 -40q4 -3 9 0l45 27q16 8 31.5 7.5t30.5 -7.5l40 -22q7 -2 7 5v302q0 87 -86 85q-20 0 -48 -5.5t-46 -27.5l33 -48v-132
q0 -36 -14.5 -57.5t-35.5 -32.5t-44.5 -14t-41.5 -3l-18 87q18 -1 28.5 1.5t16.5 6.5t7.5 9.5t1.5 11.5v107l-45 60q28 63 81 94t126 31q95 0 140 -44.5t45 -122.5v-321z" />
    <glyph glyph-name="thothanthai" unicode="&#xe10;" horiz-adv-x="385" 
d="M181 -42q23 0 40 -15l13 -11v37h98v-52q0 -25 -8.5 -40.5t-19 -25t-20 -13t-12.5 -4.5q-15 -4 -32 -2t-32 13l-26 20l-20 -18q-14 -13 -37 -13q-21 0 -38 11l-94 68l76 53l54 -40l19 17q16 15 39 15zM232 247q0 35 -19.5 53t-55.5 18q-23 0 -43.5 -12.5t-34.5 -40.5
l-89 45q54 98 167 98q22 0 42 -3.5t38 -9.5l80 74l72 -64l-78 -69q22 -36 22 -86v-250h-101v119q0 14 -5.5 21t-20.5 7h-64v82h70q5 0 10 -1t10 -5v24z" />
    <glyph glyph-name="thonangmonthothai" unicode="&#xe11;" horiz-adv-x="457" 
d="M166 409q42 0 67 -27l28 27q67 -1 106.5 -34t39.5 -97v-278h-99v275q0 15 -2 25t-11 15l-138 -135q-2 -2 -2.5 -9.5t-0.5 -9.5v-161h-101v168q0 42 26 66l83 80q6 5 5.5 12.5t-8.5 7.5t-18 -9l-21 -18q-11 -8 -20.5 -8t-20.5 7l-79 54l56 59l45 -31q14 10 31 15.5t34 5.5
z" />
    <glyph glyph-name="thophuthaothai" unicode="&#xe12;" horiz-adv-x="691" 
d="M319 247q0 36 -16 55l-33 -27q-14 -14 -36 -13.5t-36 14.5l-31 26q-16 -19 -16 -55v-127q0 -15 5.5 -22t20.5 -7h39v-91h-46q-60 0 -90 32.5t-30 86.5v136q0 62 36.5 100.5t98.5 53.5l49 -43l49 43q60 -12 96.5 -50t38.5 -104v-94q0 -34 20.5 -55t47.5 -21q29 0 42 20
t13 56v243h100v-251q0 -78 -38 -117.5t-101 -39.5q-28 0 -50.5 13.5t-33.5 28.5v-38h-99v247z" />
    <glyph glyph-name="nonenthai" unicode="&#xe13;" horiz-adv-x="688" 
d="M63 223l-44 60q28 63 81 94t125 31q95 0 140 -44.5t45 -122.5v-80q0 -36 14.5 -56t46.5 -20q26 0 46.5 21t20.5 55v243h100v-404h-100v38q-11 -15 -33.5 -28.5t-50.5 -13.5q-63 0 -103.5 39.5t-40.5 117.5v82q0 85 -86 85q-10 0 -22.5 -1t-25 -4.5t-24.5 -10t-21 -17.5
l32 -48v-131q0 -8 2 -13t10 -5h45v-90h-53q-57 0 -80.5 28.5t-23.5 78.5v116z" />
    <glyph glyph-name="dodekthai" unicode="&#xe14;" horiz-adv-x="461" 
d="M50 250q0 38 14 67.5t38.5 49.5t57.5 30.5t70 10.5t69.5 -9t57 -28.5t39 -49.5t15.5 -71v-250h-99v244q0 39 -22 56.5t-60 17.5t-59.5 -17.5t-21.5 -56.5v-126q0 -14 6 -21.5t22 -7.5h39v-89h-46q-60 0 -90 32.5t-30 86.5v131z" />
    <glyph glyph-name="totaothai" unicode="&#xe15;" horiz-adv-x="475" 
d="M163 303q-7 -9 -9.5 -22t-2.5 -28v-135q0 -14 5 -21.5t21 -7.5h39v-89h-45q-61 0 -91 32.5t-30 86.5v141q0 57 31.5 94t85.5 55l70 -55l68 57q53 -14 85.5 -52.5t34.5 -98.5v-260h-100v253q0 30 -12 50l-40 -29q-20 -15 -37 -15t-34 14z" />
    <glyph glyph-name="thothungthai" unicode="&#xe16;" horiz-adv-x="459" 
d="M410 0h-100v235q0 87 -86 85q-20 0 -48 -5.5t-46 -27.5l33 -48v-131q0 -18 13 -18h45l-1 -90h-53q-57 0 -80.5 28.5t-23.5 78.5v116l-45 60q28 63 81 94t126 31q95 0 140 -44.5t45 -122.5v-241z" />
    <glyph glyph-name="thothahanthai" unicode="&#xe17;" horiz-adv-x="437" 
d="M286 0v244q0 42 -20.5 58t-44.5 16t-47 -19.5t-23 -59.5v-239h-101v404h98v-42q21 23 45.5 35t55.5 12q32 0 57.5 -11.5t43.5 -32t27.5 -48t9.5 -59.5v-258h-101z" />
    <glyph glyph-name="thothongthai" unicode="&#xe18;" horiz-adv-x="415" 
d="M47 184h99v-77q0 -10 16 -16t36 -6q41 0 62 14t21 37q0 13 -9.5 22t-23.5 14t-29.5 8t-27.5 6q-76 16 -116.5 40.5t-40.5 74.5q0 27 12.5 47t34 33.5t51.5 20t66 6.5q45 0 91.5 -15t90.5 -45l-66 -65q-23 17 -58.5 27.5t-67.5 10.5q-23 0 -37 -4.5t-14 -16.5q0 -5 4.5 -9
t16.5 -8.5t33 -10t53 -11.5q27 -5 52 -14.5t44 -24t30 -36t11 -50.5q0 -30 -12.5 -56t-36.5 -44.5t-57.5 -29.5t-75.5 -11q-26 0 -53 6.5t-49 20.5t-36 35t-14 50v77z" />
    <glyph glyph-name="nonuthai" unicode="&#xe19;" horiz-adv-x="436" 
d="M151 404v-244q0 -42 20 -58t44 -16t47 19.5t23 59.5v239h101v-404h-98v42q-21 -23 -45.5 -35t-55.5 -12q-32 0 -57.5 11.5t-43 31.5t-27 48t-9.5 60v258h101z" />
    <glyph glyph-name="bobaimaithai" unicode="&#xe1a;" horiz-adv-x="440" 
d="M220 -4q-76 0 -123 40.5t-47 116.5v251h101v-244q0 -36 17 -55.5t52 -19.5t52 19.5t17 55.5v244h101v-251q0 -76 -47.5 -116.5t-122.5 -40.5z" />
    <glyph glyph-name="poplathai" unicode="&#xe1b;" horiz-adv-x="440" 
d="M220 -4q-76 0 -123 40.5t-47 116.5v251h101v-244q0 -36 17 -55.5t52 -19.5t52 19.5t17 55.5v438h101v-445q0 -76 -47.5 -116.5t-122.5 -40.5z" />
    <glyph glyph-name="phophungthai" unicode="&#xe1c;" horiz-adv-x="475" 
d="M202 131q17 14 34 14t37 -15l40 -29q12 19 12 50v253h100v-260q-2 -60 -34.5 -98.5t-85.5 -52.5l-68 57l-70 -55q-54 18 -85.5 55t-31.5 94v141q0 54 30 86.5t91 32.5h45v-89h-39q-16 0 -21 -7.5t-5 -21.5v-135q0 -15 2.5 -28t9.5 -22z" />
    <glyph glyph-name="fofathai" unicode="&#xe1d;" horiz-adv-x="475" 
d="M202 131q17 14 34 14t37 -15l40 -29q12 19 12 50v447h100v-454q-2 -60 -34.5 -98.5t-85.5 -52.5l-68 57l-70 -55q-54 18 -85.5 55t-31.5 94v141q0 54 30 86.5t91 32.5h45v-89h-39q-16 0 -21 -7.5t-5 -21.5v-135q0 -15 2.5 -28t9.5 -22z" />
    <glyph glyph-name="phophanthai" unicode="&#xe1e;" horiz-adv-x="550" 
d="M310 404l79 -232l33 232h102l-70 -404h-85l-94 241l-94 -241h-86l-69 404h102l33 -233l79 233h70z" />
    <glyph glyph-name="fofanthai" unicode="&#xe1f;" horiz-adv-x="550" 
d="M310 404l79 -232l67 426h102l-104 -598h-85l-94 241l-94 -241h-86l-69 404h102l33 -233l79 233h70z" />
    <glyph glyph-name="phosamphaothai" unicode="&#xe20;" horiz-adv-x="470" 
d="M420 0h-100v235q0 87 -86 85q-20 0 -48 -5.5t-46 -27.5l33 -48v-132q0 -36 -14.5 -57.5t-35.5 -33t-44 -14.5t-41 -3l-19 88q19 -1 29.5 2t16 7.5t7 9.5t1.5 10v107l-45 60q28 63 81 94t126 31q95 0 140 -44.5t45 -122.5v-241z" />
    <glyph glyph-name="momathai" unicode="&#xe21;" horiz-adv-x="436" 
d="M386 404v-258q0 -32 -9.5 -60t-27 -48t-43 -31.5t-57.5 -11.5q-31 0 -55.5 12t-45.5 35v-42h-98v404h101v-239q0 -40 23 -59.5t47 -19.5t44 16t20 58v244h101z" />
    <glyph glyph-name="yoyakthai" unicode="&#xe22;" horiz-adv-x="439" 
d="M212 176q-43 -3 -62 -12.5t-19 -34.5q0 -17 21 -30.5t58 -13.5q47 0 62.5 23.5t15.5 61.5v234h101v-234q0 -41 -9 -73.5t-30 -55t-55.5 -35t-84.5 -12.5q-59 0 -94 16t-53.5 38.5t-24.5 45.5t-6 37q0 23 7.5 43t25.5 37q-30 30 -33 73q0 25 7.5 46.5t23 38t38 26
t52.5 9.5h59v-89h-52q-15 0 -21.5 -6.5t-7.5 -18.5q0 -14 8 -21.5t20 -11.5t26.5 -5t26.5 -1v-75z" />
    <glyph glyph-name="roruathai" unicode="&#xe23;" horiz-adv-x="370" 
d="M344 125q0 -26 -10 -49.5t-30.5 -41.5t-51.5 -28.5t-72 -10.5q-56 0 -95 17t-75 55l62 67q25 -26 48.5 -37.5t57.5 -11.5q37 0 51 12t14 28t-15.5 24.5t-32.5 12.5l-31 7q-31 7 -55.5 16t-42 22.5t-26.5 32.5t-9 45q0 51 37 87t111 36q42 0 78 -13t77 -46l-65 -60
q-25 19 -45.5 24.5t-44.5 5.5t-36.5 -8t-12.5 -22q0 -8 5.5 -13t13.5 -8.5t17 -5.5t16 -4l35 -9q26 -6 49 -15t40.5 -23.5t27.5 -35.5t10 -50z" />
    <glyph glyph-name="ruthai" unicode="&#xe24;" horiz-adv-x="459" 
d="M410 -151h-100v386q0 87 -86 85q-20 0 -48 -5.5t-46 -27.5l33 -48v-131q0 -18 13 -18h45l-1 -90h-53q-57 0 -80.5 28.5t-23.5 78.5v116l-45 60q28 63 81 94t126 31q95 0 140 -44.5t45 -122.5v-392z" />
    <glyph glyph-name="lolingthai" unicode="&#xe25;" horiz-adv-x="411" 
d="M166 -4q-62 0 -101 32t-39 94q0 24 8.5 46.5t25.5 39.5t43.5 27t61.5 10h95v15q0 33 -17.5 48t-57.5 15q-26 0 -45 -7.5t-37 -23.5l-62 61q17 16 33.5 26.5t33.5 17t37 9t44 2.5q172 0 172 -142v-266h-99v164h-96q-24 0 -36.5 -12.5t-12.5 -28.5q0 -18 10.5 -31.5
t38.5 -13.5v-82z" />
    <glyph glyph-name="luthai" unicode="&#xe26;" horiz-adv-x="470" 
d="M420 -150h-100v385q0 87 -86 85q-20 0 -48 -5.5t-46 -27.5l33 -48v-132q0 -36 -14.5 -57.5t-35.5 -33t-44 -14.5t-41 -3l-19 88q19 -1 29.5 2t16 7.5t7 9.5t1.5 10v107l-45 60q28 63 81 94t126 31q95 0 140 -44.5t45 -122.5v-391z" />
    <glyph glyph-name="wowaenthai" unicode="&#xe27;" horiz-adv-x="366" 
d="M2 313q28 45 69.5 70t88.5 25q80 0 123 -45.5t43 -120.5v-79q0 -33 -9.5 -63.5t-30 -53.5t-52 -36.5t-74.5 -13.5q-35 0 -71.5 16t-66.5 48l70 60q16 -15 34.5 -24t33.5 -9q35 0 51 22.5t16 54.5v78q0 30 -15.5 52.5t-51.5 22.5q-18 0 -37 -12.5t-33 -35.5z" />
    <glyph glyph-name="sosalathai" unicode="&#xe28;" horiz-adv-x="461" 
d="M149 0h-99v250q0 41 15 70.5t39.5 49t57 29t68.5 9.5q47 0 89 -17l75 73l66 -63l-71 -69q10 -17 15.5 -37.5t5.5 -44.5v-250h-99v244q0 39 -21.5 56.5t-59.5 17.5q-37 0 -59 -16.5t-22 -53.5v-22q5 2 11 2.5t10 0.5h65v-82h-58q-17 0 -22.5 -7t-5.5 -21v-119z" />
    <glyph glyph-name="sorusithai" unicode="&#xe29;" horiz-adv-x="464" 
d="M400 175v-22q0 -36 -13.5 -65t-36.5 -50t-55.5 -32t-69.5 -11t-68.5 10.5t-54.5 30.5t-37 49.5t-15 67.5v251h101v-244q0 -36 19.5 -55.5t54.5 -19.5t54.5 19.5t19.5 55.5v15h-36q-15 0 -30.5 4.5t-28 17t-20 34.5t-7.5 57h89q0 -16 2.5 -22t6.5 -6h24v144h101v-144h48
v-85h-48z" />
    <glyph glyph-name="sosuathai" unicode="&#xe2a;" horiz-adv-x="411" 
d="M262 164h-96q-24 0 -36.5 -12.5t-12.5 -28.5q0 -18 10.5 -31.5t38.5 -13.5v-82q-62 0 -101 32t-39 94q0 24 8.5 46.5t25.5 39.5t43.5 27t61.5 10h95v15q0 33 -17.5 48t-57.5 15q-26 0 -45 -7.5t-37 -23.5l-62 61q17 16 33.5 26.5t33.5 17t37 9t44 2.5q47 0 82 -12l69 68
l66 -63l-63 -61q18 -30 18 -74v-266h-99v164z" />
    <glyph glyph-name="hohipthai" unicode="&#xe2b;" horiz-adv-x="448" 
d="M347 299q27 -21 39.5 -53t12.5 -67v-179h-100v172q0 52 -30 66l-119 -90v-148h-100v404h100v-142l203 156l58 -68z" />
    <glyph glyph-name="lochulathai" unicode="&#xe2c;" horiz-adv-x="555" 
d="M408 304q-2 6 -9.5 10.5t-31.5 4.5v85h49q11 0 18 6t10 14l16 52h103l-25 -79q-13 -38 -39 -58q6 -11 6.5 -23.5t-1.5 -23.5l-51 -292h-84l-94 241l-94 -241h-86l-69 404h102l33 -233l79 233h69l80 -232z" />
    <glyph glyph-name="oangthai" unicode="&#xe2d;" horiz-adv-x="424" 
d="M34 332q40 38 78.5 57.5t90.5 19.5q94 0 142 -52t48 -155q0 -97 -47.5 -152t-132.5 -55q-63 0 -105.5 32t-62.5 86q-4 10 -6 26.5t-3 35.5t-1 39v37h169v-85h-71q0 -31 22.5 -55.5t57.5 -24.5q24 0 39.5 9.5t24.5 25.5t12.5 37t3.5 44q0 20 -3.5 41t-14 37.5t-28.5 27
t-46 10.5q-23 0 -44.5 -9.5t-47.5 -32.5z" />
    <glyph glyph-name="honokhukthai" unicode="&#xe2e;" horiz-adv-x="424" 
d="M34 332q40 38 78.5 57.5t90.5 19.5q45 0 80 -12l68 67l67 -63l-62 -60q37 -52 37 -139q0 -97 -47.5 -152t-132.5 -55q-63 0 -105.5 32t-62.5 86q-4 10 -6 26.5t-3 35.5t-1 39v37h169v-85h-71q0 -31 22.5 -55.5t57.5 -24.5q24 0 39.5 9.5t24.5 25.5t12.5 37t3.5 44
q0 20 -3.5 41t-14 37.5t-28.5 27t-46 10.5q-23 0 -44.5 -9.5t-47.5 -32.5z" />
    <glyph glyph-name="paiyannoithai" unicode="&#xe2f;" horiz-adv-x="431" 
d="M279 166q-17 -10 -37 -13.5t-37 -3.5q-79 0 -126.5 31.5t-47.5 102.5q0 54 30.5 87.5t90.5 33.5h43v-87h-36q-17 0 -22.5 -9t-5.5 -25q0 -26 19.5 -35.5t54.5 -9.5q74 0 74 71v95h102v-404h-102v166z" />
    <glyph glyph-name="saraathai" unicode="&#xe30;" horiz-adv-x="275" 
d="M116 363q1 -16 3.5 -25.5t6.5 -9.5h111v-88h-122q-15 0 -30 6t-28 20t-21 38t-9 59h89zM116 168q1 -16 3.5 -25.5t6.5 -9.5h111v-88h-122q-15 0 -30 6t-28 20t-21 38t-9 59h89z" />
    <glyph glyph-name="maihanakatthai" unicode="&#xe31;" 
d="M-185 584q0 -14 3 -25.5t10 -11.5h195v-75h-210q-15 0 -31 3.5t-28.5 15t-21 33.5t-8.5 60h91z" />
    <glyph glyph-name="saraaathai" unicode="&#xe32;" horiz-adv-x="329" 
d="M-3 333q26 36 61 55.5t77 19.5q72 0 108 -36t36 -104v-268h-100v266q0 24 -9.5 38t-34.5 14q-33 0 -59 -33z" />
    <glyph glyph-name="saraamthai" unicode="&#xe33;" horiz-adv-x="329" 
d="M-196 548q0 19 7.5 36t20 29.5t29.5 20t36 7.5t35.5 -7.5t29 -20t20 -29.5t7.5 -36q0 -38 -27 -65t-65 -27q-19 0 -36 7.5t-29.5 20t-20 29t-7.5 35.5zM-130 548q0 -11 7.5 -18.5t19.5 -7.5t19.5 7.5t7.5 18.5q0 12 -7.5 19.5t-19.5 7.5t-19.5 -7.5t-7.5 -19.5zM-3 333
q26 36 61 55.5t77 19.5q72 0 108 -36t36 -104v-268h-100v266q0 24 -9.5 38t-34.5 14q-33 0 -59 -33z" />
    <glyph glyph-name="saraithai" unicode="&#xe34;" 
d="M-393 547h343v-75h-343v75z" />
    <glyph glyph-name="saraiithai" unicode="&#xe35;" 
d="M-393 547h248v56h95v-131h-343v75z" />
    <glyph glyph-name="sarauethai" unicode="&#xe36;" 
d="M-393 472v75h179q0 38 25.5 63.5t60.5 25.5q36 0 61.5 -23.5t25.5 -59.5q0 -35 -25.5 -58t-61.5 -23h-265zM-151 551q0 -10 7 -16.5t16 -6.5q11 0 18 6.5t7 16.5q0 11 -7 17.5t-18 6.5q-9 0 -16 -6.5t-7 -17.5z" />
    <glyph glyph-name="saraueethai" unicode="&#xe37;" 
d="M-393 547h150v56h81v-56h31v56h81v-131h-343v75z" />
    <glyph glyph-name="sarauthai" unicode="&#xe38;" 
d="M-143 -150q0 11 -7 11h-35v81h42q26 0 43.5 -3.5t28.5 -14t16 -29.5t5 -50v-71h-93v76z" />
    <glyph glyph-name="sarauuthai" unicode="&#xe39;" 
d="M-254 -136q-1 0 -1 1q-1 0 -1 0.5t-1 0.5h-29v76h47q42 0 56 -16.5t14 -56.5v-5q0 -5 4 -9t12 -4t11.5 4t3.5 9v78h88v-78q0 -42 -29.5 -67t-72.5 -25q-45 0 -73.5 25t-28.5 67z" />
    <glyph glyph-name="phinthuthai" unicode="&#xe3a;" 
d="M-162 -113q0 24 17 41t41 17t41 -17t17 -41t-17 -41t-41 -17t-41 17t-17 41z" />
    <glyph glyph-name="PUCR2005" unicode="&#xe3e;" 
 />
    <glyph glyph-name="bahtthai" unicode="&#xe3f;" horiz-adv-x="487" 
d="M444 147q0 -36 -11.5 -63t-32.5 -45.5t-49.5 -28.5t-62.5 -10v-76h-76v76h-151v502h151v60h76v-60q70 -3 109.5 -41t39.5 -101q0 -39 -18.5 -65t-37.5 -37q22 -12 42.5 -38t20.5 -73zM161 91h51v120h-51v-120zM161 300h51v112h-51v-112zM342 150q0 23 -14 40t-40 20v-118
q26 4 40 21t14 37zM337 356q0 20 -14 34.5t-35 19.5v-108q21 4 35 19t14 35z" />
    <glyph glyph-name="saraethai" unicode="&#xe40;" horiz-adv-x="207" 
d="M50 404h101v-296q0 -8 1.5 -13t9.5 -5h45v-90h-53q-57 0 -80.5 28.5t-23.5 78.5v297z" />
    <glyph glyph-name="saraaethai" unicode="&#xe41;" horiz-adv-x="399" 
d="M50 404h101v-296q0 -8 1.5 -13t9.5 -5h45v-90h-53q-57 0 -80.5 28.5t-23.5 78.5v297zM242 404h101v-296q0 -8 1.5 -13t9.5 -5h45v-90h-53q-57 0 -80.5 28.5t-23.5 78.5v297z" />
    <glyph glyph-name="saraothai" unicode="&#xe42;" horiz-adv-x="227" 
d="M56 465q0 21 -18 39t-57 18l17 76h257v-86h-109q6 -14 8 -26t2 -22v-352q0 -9 1.5 -15t9.5 -6h44v-91h-52q-58 0 -80.5 31t-22.5 80v354z" />
    <glyph glyph-name="saraaimaimuanthai" unicode="&#xe43;" horiz-adv-x="228" 
d="M56 362q0 18 5 36t26 40q26 28 39.5 42.5t13.5 20.5q0 9 -7 12t-17 3q-8 0 -21 -8t-22 -32l-89 18q6 27 19.5 48t31.5 35t38 21t40 7q62 0 93 -28t31 -76q0 -28 -17 -50t-37 -42q-12 -13 -18.5 -22.5t-7.5 -23.5v-252q0 -8 1.5 -14t9.5 -6h44v-91h-52q-58 0 -81 30.5
t-23 79.5v252z" />
    <glyph glyph-name="saraaimaimalaithai" unicode="&#xe44;" horiz-adv-x="240" 
d="M69 464q0 10 2 22t8 26h-97v86h245l17 -76q-39 0 -57 -18t-18 -39v-354q0 -9 1.5 -14.5t9.5 -5.5h44v-91h-52q-58 0 -80.5 31.5t-22.5 80.5v352z" />
    <glyph glyph-name="lakkhangyaothai" unicode="&#xe45;" horiz-adv-x="329" 
d="M-3 333q26 36 61 55.5t77 19.5q72 0 108 -36t36 -104v-419h-100v417q0 24 -9.5 38t-34.5 14q-33 0 -59 -33z" />
    <glyph glyph-name="maiyamokthai" unicode="&#xe46;" horiz-adv-x="445" 
d="M147 309q-1 -3 -1 -10.5v-13.5q0 -9 1 -18t9 -9h19v-85h-26q-23 0 -41.5 5.5t-32 18.5t-21 34.5t-7.5 53.5q0 51 24 80t85 43l67 -53l27 22l40 31q22 -6 41 -14.5t33 -21.5t22.5 -30.5t8.5 -40.5v-452h-101v455l-41 -33q-13 -9 -30 -8.5t-28 8.5z" />
    <glyph glyph-name="maitaikhuthai" unicode="&#xe47;" 
d="M-275 623q-14 0 -20 -10t-6 -22q0 -15 8 -28l46 29q11 7 23.5 7.5t23.5 -7.5l46 -29q2 6 2.5 15.5t-2.5 17.5h80q5 -25 0 -44.5t-17 -34t-30 -24.5t-39 -15l-56 38q-8 5 -14 0l-55 -39q-41 14 -69.5 42t-28.5 74q0 18 7.5 36.5t21 34t33 25.5t43.5 11h231v-77h-228z" />
    <glyph glyph-name="maiekthai" unicode="&#xe48;" 
d="M-144 799h94v-146h-94v146z" />
    <glyph glyph-name="maithothai" unicode="&#xe49;" 
d="M23 730v-77h-265v63l32 6q9 2 9 12q0 9 -12.5 11t-22.5 2v71q54 0 85.5 -18t31.5 -58q0 -8 -1 -12h143z" />
    <glyph glyph-name="maitrithai" unicode="&#xe4a;" 
d="M25 724v-71h-150v78q0 4 -0.5 12t-2.5 13l-17 -18q-10 -9 -25 -10.5t-27 10.5l-21 20q-8 -21 2.5 -34t31.5 -13v-61h-23q-36 0 -60.5 24t-24.5 57t15.5 53t32.5 28q13 7 29 7.5t32 -13.5l12 -12l13 12q17 17 33.5 14.5t33.5 -12.5q15 -8 27.5 -26.5t12.5 -41.5v-16h76z
" />
    <glyph glyph-name="maichattawathai" unicode="&#xe4b;" 
d="M-192 703v73h54v52h82v-52h54v-73h-54v-50h-82v50h-54z" />
    <glyph glyph-name="thanthakhatthai" unicode="&#xe4c;" 
d="M-131 609q0 36 7.5 58t19 34t26 16t28.5 4h87v-80h-82q-5 0 -5 -32h-81z" />
    <glyph glyph-name="nikhahitthai" unicode="&#xe4d;" 
d="M-195 548q0 19 7.5 36t20 29.5t29.5 20t36 7.5t35.5 -7.5t29 -20t20 -29.5t7.5 -36q0 -38 -27 -65t-65 -27q-19 0 -36 7.5t-29.5 20t-20 29t-7.5 35.5zM-129 548q0 -11 7.5 -18.5t19.5 -7.5t19.5 7.5t7.5 18.5q0 12 -7.5 19.5t-19.5 7.5t-19.5 -7.5t-7.5 -19.5z" />
    <glyph glyph-name="yamakkanthai" unicode="&#xe4e;" 
d="M-49 523q-2 0 -2.5 -11t-0.5 -29h-88q0 54 14.5 76.5t37.5 29.5q4 15 13 23t19.5 11.5t22 4.5t21.5 1h43v-74h-45q-2 0 -2.5 -5.5t-0.5 -26.5h-32z" />
    <glyph glyph-name="fongmanthai" unicode="&#xe4f;" horiz-adv-x="532" 
d="M219 212q0 -20 13.5 -33.5t33.5 -13.5q19 0 32.5 13.5t13.5 33.5q0 19 -13.5 32.5t-32.5 13.5q-20 0 -33.5 -13.5t-13.5 -32.5zM157 212q0 22 8.5 41.5t23.5 34.5t35 23.5t42 8.5t41.5 -8.5t34.5 -23.5t23.5 -34.5t8.5 -41.5t-8.5 -42t-23.5 -35t-34.5 -23.5t-41.5 -8.5
t-42 8.5t-35 23.5t-23.5 35t-8.5 42zM109 212q0 -32 12.5 -60.5t34 -50t50 -34t60.5 -12.5q33 0 61.5 12.5t49.5 34t33.5 50t12.5 60.5t-12.5 60.5t-33.5 50t-49.5 34t-61.5 12.5q-32 0 -60.5 -12.5t-50 -34t-34 -50t-12.5 -60.5zM39 212q0 48 17.5 89t48.5 72t72 48.5
t89 17.5t89 -17.5t72 -48.5t48.5 -72t17.5 -89t-17.5 -89t-48.5 -72t-72 -48.5t-89 -17.5t-89 17.5t-72 48.5t-48.5 72t-17.5 89z" />
    <glyph glyph-name="zerothai" unicode="&#xe50;" horiz-adv-x="466" 
d="M233 80q48 1 76.5 28.5t28.5 69.5q0 40 -28.5 67t-76.5 28q-48 -1 -76.5 -28t-28.5 -67q0 -42 28.5 -69.5t76.5 -28.5zM233 363q49 0 87.5 -14.5t64.5 -39.5t39.5 -58.5t13.5 -72.5t-13.5 -73t-39.5 -59t-64.5 -39.5t-87.5 -14.5q-50 0 -88 14.5t-64 39.5t-39.5 59
t-13.5 73t13.5 72.5t39.5 58.5t64 39.5t88 14.5z" />
    <glyph glyph-name="onethai" unicode="&#xe51;" horiz-adv-x="466" 
d="M25 174q0 42 16 76t43.5 58t66 37t83.5 13q47 0 85.5 -14.5t65.5 -41t41.5 -64t14.5 -82.5q0 -81 -40.5 -138.5t-120.5 -98.5l-53 73q60 31 87 72t27 93t-31 82.5t-76 31.5q-21 0 -40.5 -7t-34.5 -19.5t-24 -30.5t-9 -40q0 -41 26 -58.5t77 -18.5l2 -90q-56 0 -95 12.5
t-64 35t-36 53t-11 66.5z" />
    <glyph glyph-name="twothai" unicode="&#xe52;" horiz-adv-x="527" 
d="M136 461v-298q0 -21 13.5 -35.5t34 -24t45.5 -14t48 -4.5t45.5 4.5t40 14t28.5 24t11 35.5v46q0 18 -5 36t-14 25l-34 -27q-16 -13 -34 -13q-22 0 -37 16l-20 21q-6 -7 -12.5 -21.5t-10.5 -31.5l-88 28q14 57 48.5 88t82.5 44l39 -44l46 44q71 -18 104.5 -61t33.5 -97
v-53q0 -43 -17.5 -74t-47.5 -51.5t-71 -30.5t-88 -10q-46 0 -89.5 9.5t-77 29.5t-54 51t-20.5 75v299h100z" />
    <glyph glyph-name="threethai" unicode="&#xe53;" horiz-adv-x="497" 
d="M280 213q-32 -24 -64 0l-56 44q-14 -14 -24.5 -34.5t-10.5 -44.5q0 -39 24 -67t74 -29v-88q-55 1 -93 18t-61 43t-33.5 58.5t-10.5 64.5t10.5 61t29.5 54t44.5 44t54.5 32l83 -63l85 63q29 -13 54.5 -32.5t44.5 -43.5t30 -53t11 -61q0 -59 -25.5 -109t-57.5 -85l-87 44
q11 14 23.5 31t23 36t17 40t6.5 42q0 25 -9 45t-24 34z" />
    <glyph glyph-name="fourthai" unicode="&#xe54;" horiz-adv-x="520" 
d="M257 88q-24 25 -22 65q3 53 39.5 73.5t102.5 20.5h16v-88h-12q-22 0 -35 -4.5t-13 -22.5q0 -25 17 -34t47 -10h67v-88h-240q-48 0 -84 13.5t-60 37.5t-36 57t-12 72t12 72.5t36 57.5t60 38t84 14h161l80 75l68 -65l-104 -98h-205q-43 -1 -67.5 -26.5t-24.5 -67.5
q0 -40 24.5 -66t67.5 -26h33z" />
    <glyph glyph-name="fivethai" unicode="&#xe55;" horiz-adv-x="520" 
d="M276 368q0 -11 7.5 -18.5t19.5 -7.5t19.5 7.5t7.5 18.5q0 12 -7.5 19.5t-19.5 7.5t-19.5 -7.5t-7.5 -19.5zM210 368q0 19 7.5 36t20 29.5t29.5 20t36 7.5q37 0 63.5 -26t28.5 -64l70 66l68 -65l-104 -98h-205q-43 -1 -67.5 -26.5t-24.5 -67.5q0 -40 24.5 -66t67.5 -26h33
q-24 25 -22 65q3 53 39.5 73.5t102.5 20.5h16v-88h-12q-22 0 -35 -4.5t-13 -22.5q0 -25 17 -34t47 -10h67v-88h-240q-48 0 -84 13.5t-60 37.5t-36 57t-12 72q0 37 11 69.5t33.5 56.5t56 39t77.5 17v6z" />
    <glyph glyph-name="sixthai" unicode="&#xe56;" horiz-adv-x="505" 
d="M82 116q-3 25 7 45.5t25 35.5t32 25.5t29 16.5l46 -78q-13 -6 -25 -15.5t-11 -22.5q2 -23 28 -29.5t57 -6.5q54 0 81.5 26t27.5 66q0 41 -26.5 69t-79.5 28q-33 0 -70.5 -5t-68.5 -27l-138 129l66 64l96 -89q21 9 52 13t63 4q53 0 92 -14.5t64.5 -40t38 -59t12.5 -72.5
t-13 -72.5t-39.5 -58t-66 -38.5t-91.5 -14q-84 0 -132.5 32t-55.5 88z" />
    <glyph glyph-name="seventhai" unicode="&#xe57;" horiz-adv-x="516" 
d="M483 174q0 -32 -10 -60.5t-24.5 -51.5t-31.5 -41t-31 -28l-80 45q12 12 25.5 26.5t25 32t19 36.5t7.5 40q0 27 -14 49t-32 36l-53 -41q-19 -14 -33 -14q-16 0 -33 14l-52 41q-16 -15 -28.5 -35.5t-12.5 -49.5q0 -42 28.5 -65t70.5 -23v-89q-53 1 -91 17t-62 41t-35 56
t-11 63q0 37 12.5 68t33 55.5t46.5 44t54 34.5l80 -66q19 15 39 32.5t38 31.5q14 -5 29.5 -15.5t26.5 -21.5v126h99v-288z" />
    <glyph glyph-name="eightthai" unicode="&#xe58;" horiz-adv-x="503" 
d="M380 242q35 -14 57 -41t22 -65q0 -46 -29 -84.5t-90 -58.5l-81 64l-85 -64q-29 12 -55 31t-45.5 43.5t-31 54t-11.5 61.5q0 33 10.5 65.5t33 58t57.5 41t83 15.5h158l77 79l69 -64l-101 -103h-203q-39 -1 -61 -26t-22 -66q0 -23 11.5 -44.5t27.5 -35.5l54 43q7 5 14.5 9
t18.5 4q14 0 32 -13l60 -48q17 18 15 35q-2 25 -27 33z" />
    <glyph glyph-name="ninethai" unicode="&#xe59;" horiz-adv-x="559" 
d="M261 -8q-54 0 -96.5 14.5t-72 39.5t-44.5 59t-15 73t13 72.5t38.5 58.5t62.5 39.5t84 14.5q37 0 68.5 -14.5t52.5 -38.5q13 21 34.5 35t58.5 14h103v-86h-94q-24 0 -28.5 -15t-4.5 -33l109 -193l-84 -44l-126 216q-20 34 -40 51.5t-49 17.5q-44 0 -71 -27.5t-27 -67.5
q0 -20 9.5 -37.5t26 -31t40 -21t52.5 -7.5v-89z" />
    <glyph glyph-name="angkhankhuthai" unicode="&#xe5a;" horiz-adv-x="588" 
d="M436 404h102v-404h-102v404zM279 166q-17 -10 -37 -13.5t-37 -3.5q-79 0 -126.5 31.5t-47.5 102.5q0 54 30.5 87.5t90.5 33.5h43v-87h-36q-17 0 -22.5 -9t-5.5 -25q0 -26 19.5 -35.5t54.5 -9.5q74 0 74 71v95h102v-404h-102v166z" />
    <glyph glyph-name="khomutthai" unicode="&#xe5b;" horiz-adv-x="949" 
d="M902 245v-86h-222l-13 19q-15 -26 -38.5 -60.5t-52.5 -76.5q-17 31 -37.5 63t-41.5 62q-26 -78 -83 -122t-136 -44q-57 0 -100 15.5t-71.5 43.5t-42.5 65.5t-14 81.5q0 48 15.5 84t40.5 60t56 36t62 12q21 0 39 -5.5t33 -14t27.5 -18.5t22.5 -19l-63 -72q-40 36 -61 36
q-29 0 -53 -25t-24 -74q0 -31 11 -52.5t29.5 -35.5t42 -20.5t49.5 -6.5q28 0 53.5 13t44.5 35t30 50t11 57q0 10 -2 24t-10 36l64 46q29 -31 60.5 -70.5t53.5 -72.5q13 25 25.5 50.5t17.5 37.5l48 16l50 -68h179z" />
    <glyph glyph-name="ZWSP" unicode="&#x200b;" 
 />
    <glyph glyph-name="endash" unicode="&#x2013;" horiz-adv-x="405" 
d="M35 165v87h335v-87h-335z" />
    <glyph glyph-name="emdash" unicode="&#x2014;" horiz-adv-x="686" 
d="M58 165v87h570v-87h-570z" />
    <glyph glyph-name="quoteleft" unicode="&#x2018;" horiz-adv-x="205" 
d="M51 424v98l101 77v-175h-101z" />
    <glyph glyph-name="quoteright" unicode="&#x2019;" horiz-adv-x="205" 
d="M152 548v-98l-102 -77v175h102z" />
    <glyph glyph-name="quotedblleft" unicode="&#x201c;" horiz-adv-x="366" 
d="M211 424v98l103 77v-175h-103zM54 424v98l101 77v-175h-101z" />
    <glyph glyph-name="quotedblright" unicode="&#x201d;" horiz-adv-x="366" 
d="M154 549v-98l-102 -77v175h102zM312 549v-98l-101 -77v175h101z" />
    <glyph glyph-name="bullet" unicode="&#x2022;" horiz-adv-x="449" 
d="M105 204q0 24 9.5 46t26 38.5t38.5 26t46 9.5t46 -9.5t38.5 -26t26 -38.5t9.5 -46t-9.5 -46t-26 -38.5t-38.5 -26t-46 -9.5t-46 9.5t-38.5 26t-26 38.5t-9.5 46z" />
    <glyph glyph-name="Euro" unicode="&#x20ac;" horiz-adv-x="468" 
d="M429 160q-13 -83 -64 -124t-122 -41q-42 0 -76 15t-60 41q-23 22 -32.5 46.5t-14.5 53.5h-47v77h44v23v28h-44v77h48q5 27 15 51t31 44q54 57 136 57q71 0 122 -42t64 -123h-105q-7 30 -26.5 50.5t-54.5 20.5q-38 0 -59 -26q-12 -13 -17 -32h87v-77h-92v-28v-23h92v-77
h-88q3 -14 7.5 -22t10.5 -15q10 -11 25 -18t34 -7q35 0 54.5 20.5t26.5 50.5h105v0z" />
    <glyph glyph-name="trademark" unicode="&#x2122;" horiz-adv-x="647" 
d="M531 192v148l-47 -79h-58l-47 79v-148h-74v309h65l85 -149l85 149h65v-309h-74zM188 437v-245h-75v245h-90v64h253v-64h-88z" />
    <glyph glyph-name="uni25CC" unicode="&#x25cc;" horiz-adv-x="561" 
d="M217 150l-40 -13l13 40q11 -16 27 -27zM261 346l20 38l18 -37q-9 1 -17 1q-11 0 -21 -2zM297 131l-16 -35l-18 35q9 -2 19 -2q8 0 15 2zM389 257l35 -19l-35 -15q2 7 2 15q0 9 -2 19zM174 221l-38 19l38 19q-2 -11 -2 -21q0 -9 2 -17zM193 304l-11 38l38 -13
q-16 -10 -27 -25zM368 172l10 -35l-34 11q14 10 24 24zM343 329l42 13l-15 -39q-11 15 -27 26z" />
    <glyph glyph-name="thothannobasethai" unicode="&#xf700;" horiz-adv-x="385" 
d="M-10 310q54 98 167 98q22 0 42 -3.5t38 -9.5l80 74l72 -64l-78 -69q22 -36 22 -86v-250h-101v129q0 14 -5.5 21t-20.5 7h-49v82h56h9.5t9.5 -1v9q-5 71 -75 71q-23 0 -43.5 -12.5t-34.5 -40.5z" />
    <glyph glyph-name="saraileftthai" unicode="&#xf701;" 
d="M-458 547h273v-75h-273v75z" />
    <glyph glyph-name="saraiileftthai" unicode="&#xf702;" 
d="M-458 547h178v51h95v-126h-273v75z" />
    <glyph glyph-name="saraueleftthai" unicode="&#xf703;" 
d="M-458 472v75h110q0 19 7 35t18.5 28t27 19t33.5 7q36 0 61.5 -23.5t25.5 -59.5q0 -35 -25.5 -58t-61.5 -23h-196zM-285 551q0 -10 7 -16.5t16 -6.5q11 0 18 6.5t7 16.5q0 11 -7 17.5t-18 6.5q-9 0 -16 -6.5t-7 -17.5z" />
    <glyph glyph-name="saraueeleftthai" unicode="&#xf704;" 
d="M-458 547h80v51h81v-51h31v51h81v-126h-273v75z" />
    <glyph glyph-name="maieklowleftthai" unicode="&#xf705;" 
d="M-300 633h96v-156h-96v156z" />
    <glyph glyph-name="maitholowleftthai" unicode="&#xf706;" 
d="M-181 563v-85h-238v70l36 7q9 2 9 13t-13.5 13t-24.5 2v78q60 0 94.5 -19.5t34.5 -64.5q0 -9 -1 -14h103z" />
    <glyph glyph-name="maitrilowleftthai" unicode="&#xf707;" 
d="M-151 552v-74h-115v85q0 5 -0.5 13t-2.5 13l-18 -18q-11 -10 -28 -11.5t-30 11.5l-21 20q-10 -22 1.5 -36t33.5 -14v-66h-23q-41 0 -67 26t-26 62t17.5 57t34.5 31q14 7 31.5 8t33.5 -14l15 -13l14 13q17 17 35.5 15t36.5 -13q17 -9 30 -29t13 -46v-20h35z" />
    <glyph glyph-name="maichattawalowleftthai" unicode="&#xf708;" 
d="M-390 532v81h59v57h91v-57h59v-81h-59v-55h-91v55h-59z" />
    <glyph glyph-name="thanthakhatlowleftthai" unicode="&#xf709;" 
d="M-360 479q0 39 7.5 62t20 36t27.5 17t30 4h94v-81h-88q-4 0 -5 -10.5t-1 -27.5h-85z" />
    <glyph glyph-name="maieklowrightthai" unicode="&#xf70a;" 
d="M-147 638h97v-156h-97v156z" />
    <glyph glyph-name="maitholowrightthai" unicode="&#xf70b;" 
d="M-7 567v-85h-260v70l36 7q9 2 9 13t-13.5 13t-24.5 2v78q60 0 94.5 -19.5t34.5 -64.5q0 -9 -1 -14h125z" />
    <glyph glyph-name="maitrilowrightthai" unicode="&#xf70c;" 
d="M-20 557v-75h-145v86q0 5 -0.5 13.5t-2.5 13.5l-19 -19q-11 -10 -28 -11.5t-30 11.5l-22 21q-10 -23 1.5 -37t34.5 -14v-67h-24q-20 0 -37.5 7t-30 19.5t-19.5 28.5t-7 34q0 37 17.5 58.5t35.5 31.5q14 7 31.5 8t34.5 -14l15 -14l14 14q17 17 36 15t37 -13
q17 -10 30.5 -30t13.5 -46v-21h64z" />
    <glyph glyph-name="maichattawalowrightthai" unicode="&#xf70d;" 
d="M-205 537v81h59v57h91v-57h59v-81h-59v-55h-91v55h-59z" />
    <glyph glyph-name="thanthakhatlowrightthai" unicode="&#xf70e;" 
d="M-228 482q0 39 7.5 62t20 35t27.5 15.5t30 3.5h142v-81h-136q-6 0 -6 -35h-85z" />
    <glyph glyph-name="yoyingnobasethai" unicode="&#xf70f;" horiz-adv-x="684" 
d="M164 108q0 -8 2 -13t10 -5h45v-90h-53q-57 0 -80.5 28.5t-23.5 78.5v116l-45 60q28 63 81 94t126 31q95 0 140 -44.5t45 -122.5v-80q0 -37 15.5 -57t43.5 -20q29 0 47 20t18 57v243h99v-251q0 -32 -9.5 -61t-29.5 -50.5t-50.5 -34t-72.5 -12.5q-80 0 -120.5 41t-40.5 117
v82q0 87 -86 85q-20 0 -48 -5.5t-46 -27.5l33 -48v-131z" />
    <glyph glyph-name="maihanakatleftthai" unicode="&#xf710;" 
d="M-246 594q0 -14 3 -25t10 -11h256v-82h-271q-15 0 -31 4.5t-28.5 17t-21 35.5t-8.5 61h91z" />
    <glyph glyph-name="nikhahitleftthai" unicode="&#xf711;" 
d="M-365 548q0 19 7.5 36t20 29.5t29.5 20t36 7.5t35.5 -7.5t29 -20t20 -29.5t7.5 -36q0 -38 -27 -65t-65 -27q-19 0 -36 7.5t-29.5 20t-20 29t-7.5 35.5zM-299 548q0 -11 7.5 -18.5t19.5 -7.5t19.5 7.5t7.5 18.5q0 12 -7.5 19.5t-19.5 7.5t-19.5 -7.5t-7.5 -19.5z" />
    <glyph glyph-name="maitaikhuleftthai" unicode="&#xf712;" 
d="M-370 601q-12 0 -18 -9.5t-6 -20.5q0 -13 8 -26l41 27q21 13 43 0l41 -27q2 6 2.5 14.5t-2.5 16.5h75q5 -23 0.5 -41.5t-16 -32.5t-28 -23t-36.5 -14l-50 36q-6 4 -14 0l-49 -37q-38 13 -65 39.5t-27 69.5q0 17 7 34.5t19.5 32t30.5 24t41 10.5h201v-73h-198z" />
    <glyph glyph-name="maiekupperleftthai" unicode="&#xf713;" 
d="M-279 799h94v-146h-94v146z" />
    <glyph glyph-name="maithoupperleftthai" unicode="&#xf714;" 
d="M-51 730v-77h-267v63l32 6q9 2 9 12q0 9 -12.5 11t-22.5 2v71q54 0 85.5 -18t31.5 -58q0 -8 -1 -12h145z" />
    <glyph glyph-name="maitriupperleftthai" unicode="&#xf715;" 
d="M-50 724v-71h-150v78q0 4 -0.5 12t-2.5 13l-17 -18q-10 -9 -25 -10.5t-27 10.5l-21 20q-8 -21 2.5 -34t31.5 -13v-61h-23q-36 0 -60.5 24t-24.5 57t15.5 53t32.5 28q13 7 29 7.5t32 -13.5l12 -12l13 12q17 17 33.5 14.5t33.5 -12.5q15 -8 27.5 -26.5t12.5 -41.5v-16h76z
" />
    <glyph glyph-name="maichattawaupperleftthai" unicode="&#xf716;" 
d="M-327 703v73h54v52h82v-52h54v-73h-54v-50h-82v50h-54z" />
    <glyph glyph-name="thanthakhatupperleftthai" unicode="&#xf717;" 
d="M-267 609q0 36 7.5 58t19 34t26 16t28.5 4h102v-80h-97q-5 0 -5 -32h-81z" />
    <glyph glyph-name="saraulowthai" unicode="&#xf718;" 
d="M-143 -267q0 11 -7 11h-35v81h42q26 0 43.5 -3.5t28.5 -14t16 -29.5t5 -50v-71h-93v76z" />
    <glyph glyph-name="sarauulowthai" unicode="&#xf719;" 
d="M-254 -254q0 2 -3 2h-29v76h47q42 0 56 -16.5t14 -56.5v-5q0 -5 4 -9t12 -4t11.5 4t3.5 9v78h88v-78q0 -42 -29.5 -67t-72.5 -25q-45 0 -73 25t-29 66v1z" />
    <glyph glyph-name="phinthulowthai" unicode="&#xf71a;" 
d="M-162 -226q0 24 17 41t41 17t41 -17t17 -41t-17 -41t-41 -17t-41 17t-17 41z" />
    <glyph glyph-name="lochula.short" unicode="&#xf71d;" horiz-adv-x="555" 
d="M408 304q-2 6 -9.5 10.5t-31.5 4.5v85h49q11 0 18 6t10 14l16 52h103l-25 -79q-13 -38 -39 -58q6 -11 6.5 -23.5t-1.5 -23.5l-51 -292h-84l-94 241l-94 -241h-86l-69 404h102l33 -233l79 233h69l80 -232z" />
    <glyph glyph-name="rulakkhangyao" unicode="&#xf881;" horiz-adv-x="777" 
d="M445 333q26 36 61 55.5t77 19.5q72 0 108 -36t36 -104v-419h-100v417q0 24 -9.5 38t-34.5 14q-33 0 -59 -33zM410 -151h-100v386q0 87 -86 85q-20 0 -48 -5.5t-46 -27.5l33 -48v-131q0 -18 13 -18h45l-1 -90h-53q-57 0 -80.5 28.5t-23.5 78.5v116l-45 60q28 63 81 94
t126 31q95 0 140 -44.5t45 -122.5v-392z" />
    <glyph glyph-name="lulakkhangyao" unicode="&#xf882;" horiz-adv-x="785" 
d="M453 333q26 36 61 55.5t77 19.5q72 0 108 -36t36 -104v-419h-100v417q0 24 -9.5 38t-34.5 14q-33 0 -59 -33zM420 -150h-100v385q0 87 -86 85q-20 0 -48 -5.5t-46 -27.5l33 -48v-132q0 -36 -14.5 -57.5t-35.5 -33t-44 -14.5t-41 -3l-19 88q19 -1 29.5 2t16 7.5t7 9.5
t1.5 10v107l-45 60q28 63 81 94t126 31q95 0 140 -44.5t45 -122.5v-391z" />
    <glyph glyph-name="yamakkanleftthai" 
d="M-258 523q-2 0 -2.5 -11t-0.5 -29h-88q0 54 14.5 76.5t37.5 29.5q4 15 13 23t19.5 11.5t22 4.5t21.5 1h38v-74h-40q-2 0 -2.5 -5.5t-0.5 -26.5h-32z" />
    <glyph glyph-name="saraamleft" horiz-adv-x="329" 
d="M-365 548q0 19 7.5 36t20 29.5t29.5 20t36 7.5t35.5 -7.5t29 -20t20 -29.5t7.5 -36q0 -38 -27 -65t-65 -27q-19 0 -36 7.5t-29.5 20t-20 29t-7.5 35.5zM-299 548q0 -11 7.5 -18.5t19.5 -7.5t19.5 7.5t7.5 18.5q0 12 -7.5 19.5t-19.5 7.5t-19.5 -7.5t-7.5 -19.5zM-3 333
q26 36 61 55.5t77 19.5q72 0 108 -36t36 -104v-268h-100v266q0 24 -9.5 38t-34.5 14q-33 0 -59 -33z" />
    <glyph glyph-name="uni0E33.alt1" horiz-adv-x="329" 
d="M-365 548q0 19 7.5 36t20 29.5t29.5 20t36 7.5t35.5 -7.5t29 -20t20 -29.5t7.5 -36q0 -38 -27 -65t-65 -27q-19 0 -36 7.5t-29.5 20t-20 29t-7.5 35.5zM-299 548q0 -11 7.5 -18.5t19.5 -7.5t19.5 7.5t7.5 18.5q0 12 -7.5 19.5t-19.5 7.5t-19.5 -7.5t-7.5 -19.5zM-3 333
q26 36 61 55.5t77 19.5q72 0 108 -36t36 -104v-268h-100v266q0 24 -9.5 38t-34.5 14q-33 0 -59 -33z" />
    <glyph glyph-name="saraithai.alt1" 
d="M-373 547h323v-75h-323v75z" />
    <glyph glyph-name="saraiithai.alt1" 
d="M-373 547h229v56h94v-131h-323v75z" />
    <glyph glyph-name="sarauethai.alt1" 
d="M-373 472v75h159q0 38 25.5 63.5t60.5 25.5q36 0 61.5 -23.5t25.5 -59.5q0 -35 -25.5 -58t-61.5 -23h-245zM-151 551q0 -10 7 -16.5t16 -6.5q11 0 18 6.5t7 16.5q0 11 -7 17.5t-18 6.5q-9 0 -16 -6.5t-7 -17.5z" />
    <glyph glyph-name="saraueethai.alt1" 
d="M-373 547h130v56h81v-56h31v56h81v-131h-323v75z" />
    <glyph glyph-name="saraithai.alt2" 
d="M-514 547h351v-75h-351v75z" />
    <glyph glyph-name="saraiithai.alt2" 
d="M-514 547h257v51h94v-126h-351v75z" />
    <glyph glyph-name="sarauethai.alt2" 
d="M-514 472v75h184q0 19 7 35t18.5 28t27 19t33.5 7q36 0 61.5 -23.5t25.5 -59.5q0 -35 -25.5 -58t-61.5 -23h-270zM-267 551q0 -10 7 -16.5t16 -6.5q11 0 18 6.5t7 16.5q0 11 -7 17.5t-18 6.5q-9 0 -16 -6.5t-7 -17.5z" />
    <glyph glyph-name="saraueethai.alt2" 
d="M-514 547h158v51h81v-51h31v51h81v-126h-351v75z" />
    <glyph glyph-name="maiekthai.alt2" 
d="M-256 799h93v-146h-93v146z" />
    <glyph glyph-name="maithothai.alt2" 
d="M-96 730v-77h-259v63l32 6q9 2 9 12q0 9 -12.5 11t-22.5 2v71q54 0 85.5 -18t31.5 -58q0 -8 -1 -12h137z" />
    <glyph glyph-name="maitrithai.alt2" 
d="M-55 724v-71h-150v78q0 4 -0.5 12t-2.5 13l-17 -18q-10 -9 -25 -10.5t-27 10.5l-21 20q-8 -21 2.5 -34t31.5 -13v-61h-23q-36 0 -60.5 24t-24.5 57t15.5 53t32.5 28q13 7 29 7.5t32 -13.5l12 -12l13 12q17 17 33.5 14.5t33.5 -12.5q15 -8 27.5 -26.5t12.5 -41.5v-16h76z
" />
    <glyph glyph-name="maichattawathai.alt2" 
d="M-306 703v73h54v52h82v-52h54v-73h-54v-50h-82v50h-54z" />
    <glyph glyph-name="saraithai.alt3" 
d="M-513 547h463v-75h-463v75z" />
    <glyph glyph-name="saraiithai.alt3" 
d="M-513 547h368v56h95v-131h-463v75z" />
    <glyph glyph-name="sarauethai.alt3" 
d="M-513 472v75h299q0 38 25.5 63.5t60.5 25.5q36 0 61.5 -23.5t25.5 -59.5q0 -35 -25.5 -58t-61.5 -23h-385zM-151 551q0 -10 7 -16.5t16 -6.5q11 0 18 6.5t7 16.5q0 11 -7 17.5t-18 6.5q-9 0 -16 -6.5t-7 -17.5z" />
    <glyph glyph-name="saraueethai.alt3" 
d="M-513 547h270v56h81v-56h31v56h81v-131h-463v75z" />
    <glyph glyph-name="maiekthai.alt3" 
d="M-144 799h94v-146h-94v146z" />
    <glyph glyph-name="maithothai.alt3" 
d="M23 730v-77h-265v63l32 6q9 2 9 12q0 9 -12.5 11t-22.5 2v71q54 0 85.5 -18t31.5 -58q0 -8 -1 -12h143z" />
    <glyph glyph-name="maitrithai.alt3" 
d="M25 724v-71h-150v78q0 4 -0.5 12t-2.5 13l-17 -18q-10 -9 -25 -10.5t-27 10.5l-21 20q-8 -21 2.5 -34t31.5 -13v-61h-23q-36 0 -60.5 24t-24.5 57t15.5 53t32.5 28q13 7 29 7.5t32 -13.5l12 -12l13 12q17 17 33.5 14.5t33.5 -12.5q15 -8 27.5 -26.5t12.5 -41.5v-16h76z
" />
    <glyph glyph-name="maichattawathai.alt3" 
d="M-192 703v73h54v52h82v-52h54v-73h-54v-50h-82v50h-54z" />
    <glyph glyph-name="saraithai.alt4" 
d="M-414 547h350v-75h-350v75z" />
    <glyph glyph-name="saraiithai.alt4" 
d="M-414 547h255v56h95v-131h-350v75z" />
    <glyph glyph-name="thanthakhatthai.alt4" 
d="M-258 462q0 39 8 62.5t20.5 36.5t28 17.5t30.5 4.5h142v-86h-136q-6 0 -6 -35h-87z" />
    <glyph glyph-name="zero.alt1" horiz-adv-x="385" 
d="M342 140q0 -35 -12 -62.5t-32.5 -46t-47.5 -28t-57 -9.5t-57.5 9.5t-48 28t-32.5 46t-12 62.5v124q0 35 12 62.5t32.5 46t48 28t57.5 9.5t57 -9.5t47.5 -28t32.5 -46t12 -62.5v-124zM244 263q0 26 -14.5 42t-36.5 16q-23 0 -37.5 -16t-14.5 -42v-122q0 -27 14.5 -42.5
t37.5 -15.5q22 0 36.5 15.5t14.5 42.5v122z" />
    <glyph glyph-name="one.alt1" horiz-adv-x="355" 
d="M161 0v301l-101 -87v108l102 89h98v-411h-99z" />
    <glyph glyph-name="two.alt1" horiz-adv-x="385" 
d="M39 0v86l156 131q21 18 33 33t12 32q0 21 -14 33.5t-37 12.5q-20 0 -35.5 -13.5t-15.5 -44.5h-98q0 34 11.5 61.5t32 46.5t47.5 29t58 10t58.5 -9.5t47.5 -26.5t31.5 -42t11.5 -56q0 -20 -6.5 -37t-18 -33t-27.5 -31t-34 -31l-73 -62h167v-89h-307z" />
    <glyph glyph-name="three.alt1" horiz-adv-x="385" 
d="M353 52q0 -39 -13 -68t-35.5 -47.5t-51.5 -28t-62 -9.5q-32 0 -61 8.5t-51.5 27.5t-36.5 48t-14 70h98q2 -33 20.5 -48.5t44.5 -15.5q28 0 45.5 16.5t17.5 47.5q0 30 -17 48t-49 18h-17v86h17q32 0 45.5 16t13.5 42q0 29 -17 43.5t-40 14.5q-24 0 -40 -15.5t-18 -42.5
h-99q1 35 13.5 62.5t33.5 46t49.5 28.5t60.5 10q34 0 63 -10.5t50 -29.5t32.5 -45.5t11.5 -58.5q0 -39 -15 -63.5t-38 -38.5q25 -15 42 -41.5t17 -70.5z" />
    <glyph glyph-name="four.alt1" horiz-adv-x="385" 
d="M318 0v-80h-95v80h-205v92l173 340h109l-172 -338h95v92h95v-92h46v-94h-46z" />
    <glyph glyph-name="five.alt1" horiz-adv-x="385" 
d="M350 73q0 -37 -9 -69t-28.5 -56t-49 -37.5t-71.5 -13.5q-72 0 -110.5 39.5t-45.5 111.5h97q4 -29 18 -45t41 -16q26 0 41 16q11 11 15 28.5t4 41.5q0 40 -13.5 63t-44.5 23q-26 0 -39 -13.5t-18 -27.5h-91v286h293v-89h-202v-93q11 8 29.5 14t41.5 6q37 0 64 -13
t44 -35.5t25.5 -53.5t8.5 -67z" />
    <glyph glyph-name="six.alt1" horiz-adv-x="385" 
d="M358 160q0 -39 -12.5 -70t-35 -52t-53 -32t-65.5 -11t-65 11t-52.5 31.5t-35.5 51t-13 69.5q0 38 13.5 71.5t30.5 69.5l100 203h110l-96 -189q11 2 18.5 2.5t15.5 0.5q27 0 52 -10.5t44.5 -30.5t31.5 -49t12 -66zM258 159q0 34 -18.5 53t-47.5 19t-47.5 -18.5
t-18.5 -53.5t18.5 -54.5t47.5 -19.5t47.5 19.5t18.5 54.5z" />
    <glyph glyph-name="seven.alt1" horiz-adv-x="385" 
d="M191 -98h-108l162 413h-122v-73h-95v162h325v-87z" />
    <glyph glyph-name="eight.alt1" horiz-adv-x="385" 
d="M356 148q0 -38 -13 -66.5t-35 -48t-51.5 -29t-63.5 -9.5q-35 0 -65 9.5t-52 29t-35 48t-13 66.5q0 45 19.5 71t40.5 40q-19 14 -36 39t-17 65q0 34 12.5 60.5t34 45t50.5 28t61 9.5q31 0 59.5 -9.5t50 -28t34 -45t12.5 -60.5q0 -40 -17 -65t-36 -39q21 -14 40.5 -40
t19.5 -71zM250 360q0 25 -16 41t-41 16q-26 0 -43 -16t-17 -41q0 -27 17 -43t43 -16q25 0 41 16t16 43zM256 149q0 27 -18 46.5t-45 19.5q-29 0 -47.5 -19.5t-18.5 -46.5t18.5 -45.5t47.5 -18.5q27 0 45 18.5t18 45.5z" />
    <glyph glyph-name="nine.alt1" horiz-adv-x="385" 
d="M26 245q0 39 13 69.5t35.5 52t53 32.5t65.5 11t65 -11t52.5 -31.5t35 -51t12.5 -69.5q0 -38 -13.5 -71.5t-30.5 -69.5l-100 -203h-110l96 189q-11 -2 -18.5 -2.5t-15.5 -0.5q-27 0 -52 10.5t-44.5 30.5t-31.5 49t-12 66zM126 246q0 -34 18.5 -53t48.5 -19q29 0 47 18.5
t18 53.5t-18 54.5t-47 19.5t-48 -19.5t-19 -54.5z" />
    <glyph glyph-name="maitaikhuthai.alt1" 
d="M-246 629q-16 0 -22 -12.5t-6 -23.5q0 -8 2 -17t6 -15l42 28q11 6 22.5 6.5t21.5 -6.5l43 -28q2 6 2.5 15t-2.5 17h77q10 -48 -16 -76t-67 -38l-51 37q-8 5 -14 0l-51 -38q-39 13 -66.5 43t-27.5 74q0 17 7 36t20 35t31.5 26.5t41.5 11.5h207v-75h-200z" />
    <glyph glyph-name="maihanakatthai.alt2" 
d="M-246 584q0 -14 3 -25.5t10 -11.5h292v-75h-307q-15 0 -31 3.5t-28.5 15t-21 33.5t-8.5 60h91z" />
    <glyph glyph-name="maiekthai.alt7" 
d="M-279 769h94v-146h-94v146z" />
    <glyph glyph-name="maithothai.alt7" 
d="M-183 700v-77h-215v63l32 6q9 2 9 12q0 9 -12.5 11t-22.5 2v71q54 0 85.5 -18t31.5 -58q0 -8 -1 -12h93z" />
    <glyph glyph-name="maitrithai.alt7" 
d="M-180 692v-69h-107v76q0 4 -0.5 11.5t-2.5 12.5l-17 -17q-10 -9 -24.5 -10.5t-25.5 10.5l-21 19q-8 -20 2.5 -33t30.5 -13v-59h-22q-35 0 -59 23.5t-24 55.5t15 51.5t32 27.5q12 7 28 7.5t31 -13.5l12 -12l12 12q17 16 33 14t33 -12q14 -8 26.5 -26t12.5 -40v-16h35z" />
    <glyph glyph-name="maichattawathai.alt7" 
d="M-327 673v73h54v52h82v-52h54v-73h-54v-50h-82v50h-54z" />
    <glyph glyph-name="maiekthai.alt5" 
d="M-144 769h94v-146h-94v146z" />
    <glyph glyph-name="maithothai.alt5" 
d="M23 700v-77h-265v63l32 6q9 2 9 12q0 9 -12.5 11t-22.5 2v71q54 0 85.5 -18t31.5 -58q0 -8 -1 -12h143z" />
    <glyph glyph-name="maitrithai.alt5" 
d="M25 694v-71h-150v78q0 4 -0.5 12t-2.5 13l-17 -18q-10 -9 -25 -10.5t-27 10.5l-21 20q-8 -21 2.5 -34t31.5 -13v-61h-23q-36 0 -60.5 24t-24.5 57t15.5 53t32.5 28q13 7 29 7.5t32 -13.5l12 -12l13 12q17 17 33.5 14.5t33.5 -12.5q15 -8 27.5 -26.5t12.5 -41.5v-16h76z
" />
    <glyph glyph-name="maichattawathai.alt5" 
d="M-192 673v73h54v52h82v-52h54v-73h-54v-50h-82v50h-54z" />
    </font>
</defs>
</svg>
